<svg width="109" height="14" viewBox="0 0 109 14" fill="none" xmlns="http://www.w3.org/2000/svg">
<path fill-rule="evenodd" clip-rule="evenodd" d="M3.62482 13.8155L0.171371 10.3637L10.5297 0.00439453L20.888 10.3637L17.4346 13.8155L13.9831 10.3637L10.5297 13.8155L7.07625 10.3637L3.62482 13.8155Z" fill="white"/>
<path d="M37.9009 9.20189C37.9009 8.25414 36.8507 7.85246 34.4879 7.85246C30.7468 7.85246 29.1348 6.85745 29.1348 4.46574C29.1348 2.07404 31.0303 0.745605 34.5824 0.745605C37.8536 0.745605 40.0327 2.26307 40.0327 4.53663H37.6698C37.6698 3.54162 36.4386 2.8774 34.5903 2.8774C32.5635 2.88265 31.5134 3.4261 31.5134 4.47624C31.5134 5.37674 32.4611 5.73117 34.7111 5.73117C38.6202 5.73117 40.2795 6.79706 40.2795 9.2124C40.2795 11.7249 38.2894 13.0743 34.5929 13.0743C31.1721 13.0691 28.888 11.5647 28.888 9.27803H31.2508C31.2508 10.273 32.5766 10.9373 34.5667 10.9373C36.7378 10.9373 37.9009 10.3229 37.9009 9.20189Z" fill="white"/>
<path d="M53.107 7.14616V0.987061H55.4698V7.14616C55.4698 10.5591 53.0518 13.069 49.7833 13.069C46.5147 13.069 44.1151 10.5591 44.1151 7.14616V0.987061H46.4779V7.14616C46.4779 9.27795 47.8746 10.8217 49.7938 10.8217C51.7129 10.8217 53.107 9.27795 53.107 7.14616Z" fill="white"/>
<path d="M60.2611 0.987061H68.7935C70.9253 0.987061 72.3483 2.41001 72.3483 4.5418C72.3483 6.43731 71.117 7.76312 69.2451 7.95477C69.4038 8.13146 69.5461 8.32214 69.6704 8.52447L72.3483 12.8353H69.6704L66.6617 7.9784H62.6292V12.8353H60.2664L60.2611 0.987061ZM68.7935 5.84398C68.9515 5.85356 69.1097 5.82949 69.2577 5.77338C69.4057 5.71726 69.5401 5.63037 69.652 5.51846C69.764 5.40654 69.8509 5.27214 69.907 5.12414C69.9631 4.97615 69.9871 4.81793 69.9776 4.65994V4.30552C69.9875 4.14732 69.9638 3.98881 69.9078 3.84049C69.8519 3.69218 69.765 3.55745 69.6531 3.44524C69.5411 3.33303 69.4066 3.24591 69.2584 3.18964C69.1102 3.13337 68.9518 3.10924 68.7935 3.11885H62.6292V5.84398H68.7935Z" fill="white"/>
<path d="M78.5258 3.11885V5.84398H85.3938V7.97577H78.5258V10.7009H87.7645V12.8327H76.1446V0.987061H87.754V3.11885H78.5258Z" fill="white"/>
<path d="M91.3401 0.987061H103.186V3.11885H98.4601V12.8327H96.0973V3.11885H91.3401V0.987061Z" fill="white"/>
<path d="M106.525 12.8327V0.987061H108.888V12.8327H106.525Z" fill="white"/>
</svg>
