<svg width="55" height="85" viewBox="0 0 55 85" fill="none" xmlns="http://www.w3.org/2000/svg">
<path d="M-154.705 1.516C-154.705 2.35314 -155.384 3.03177 -156.221 3.03177C-157.058 3.03177 -157.737 2.35314 -157.737 1.516C-157.737 0.678869 -157.058 0.000236256 -156.221 0.000236256C-155.384 0.000236256 -154.705 0.678869 -154.705 1.516Z" fill="#DCDBF4"/>
<path d="M-145.61 1.51597C-145.61 2.35311 -146.289 3.03174 -147.126 3.03174C-147.963 3.03174 -148.642 2.35311 -148.642 1.51597C-148.642 0.678838 -147.963 0.000205775 -147.126 0.000205775C-146.289 0.000205775 -145.61 0.678838 -145.61 1.51597Z" fill="#DCDBF4"/>
<path d="M-136.516 1.51596C-136.516 2.3531 -137.195 3.03173 -138.032 3.03173C-138.869 3.03173 -139.547 2.3531 -139.547 1.51596C-139.547 0.678826 -138.869 0.000193745 -138.032 0.000193745C-137.195 0.000193745 -136.516 0.678826 -136.516 1.51596Z" fill="#DCDBF4"/>
<path d="M-127.421 1.51597C-127.421 2.35311 -128.1 3.03174 -128.937 3.03174C-129.774 3.03174 -130.453 2.35311 -130.453 1.51597C-130.453 0.678835 -129.774 0.0002025 -128.937 0.0002025C-128.1 0.0002025 -127.421 0.678835 -127.421 1.51597Z" fill="#DCDBF4"/>
<path d="M-154.705 10.6105C-154.705 11.4477 -155.384 12.1263 -156.221 12.1263C-157.058 12.1263 -157.737 11.4477 -157.737 10.6105C-157.737 9.77339 -157.058 9.09476 -156.221 9.09476C-155.384 9.09476 -154.705 9.77339 -154.705 10.6105Z" fill="#DCDBF4"/>
<path d="M-145.611 10.6105C-145.611 11.4477 -146.289 12.1263 -147.126 12.1263C-147.963 12.1263 -148.642 11.4477 -148.642 10.6105C-148.642 9.77338 -147.963 9.09475 -147.126 9.09475C-146.289 9.09475 -145.611 9.77338 -145.611 10.6105Z" fill="#DCDBF4"/>
<path d="M-136.516 10.6106C-136.516 11.4478 -137.194 12.1264 -138.031 12.1264C-138.869 12.1264 -139.547 11.4478 -139.547 10.6106C-139.547 9.77351 -138.869 9.09488 -138.031 9.09488C-137.194 9.09488 -136.516 9.77351 -136.516 10.6106Z" fill="#DCDBF4"/>
<path d="M-127.421 10.6105C-127.421 11.4476 -128.1 12.1263 -128.937 12.1263C-129.774 12.1263 -130.453 11.4476 -130.453 10.6105C-130.453 9.77337 -129.774 9.09474 -128.937 9.09474C-128.1 9.09474 -127.421 9.77337 -127.421 10.6105Z" fill="#DCDBF4"/>
<path d="M-154.705 19.7053C-154.705 20.5425 -155.384 21.2211 -156.221 21.2211C-157.058 21.2211 -157.737 20.5425 -157.737 19.7053C-157.737 18.8682 -157.058 18.1896 -156.221 18.1896C-155.384 18.1896 -154.705 18.8682 -154.705 19.7053Z" fill="#DCDBF4"/>
<path d="M-145.611 19.7052C-145.611 20.5424 -146.289 21.221 -147.126 21.221C-147.963 21.221 -148.642 20.5424 -148.642 19.7052C-148.642 18.8681 -147.963 18.1895 -147.126 18.1895C-146.289 18.1895 -145.611 18.8681 -145.611 19.7052Z" fill="#DCDBF4"/>
<path d="M-136.516 19.7052C-136.516 20.5423 -137.195 21.221 -138.032 21.221C-138.869 21.221 -139.547 20.5423 -139.547 19.7052C-139.547 18.8681 -138.869 18.1894 -138.032 18.1894C-137.195 18.1894 -136.516 18.8681 -136.516 19.7052Z" fill="#DCDBF4"/>
<path d="M-127.421 19.7052C-127.421 20.5424 -128.1 21.221 -128.937 21.221C-129.774 21.221 -130.453 20.5424 -130.453 19.7052C-130.453 18.8681 -129.774 18.1895 -128.937 18.1895C-128.1 18.1895 -127.421 18.8681 -127.421 19.7052Z" fill="#DCDBF4"/>
<path d="M-154.705 28.7999C-154.705 29.637 -155.384 30.3157 -156.221 30.3157C-157.058 30.3157 -157.737 29.637 -157.737 28.7999C-157.737 27.9627 -157.058 27.2841 -156.221 27.2841C-155.384 27.2841 -154.705 27.9627 -154.705 28.7999Z" fill="#DCDBF4"/>
<path d="M-145.611 28.7998C-145.611 29.6369 -146.289 30.3156 -147.126 30.3156C-147.963 30.3156 -148.642 29.6369 -148.642 28.7998C-148.642 27.9627 -147.963 27.284 -147.126 27.284C-146.289 27.284 -145.611 27.9627 -145.611 28.7998Z" fill="#DCDBF4"/>
<path d="M-136.516 28.7998C-136.516 29.6369 -137.195 30.3156 -138.032 30.3156C-138.869 30.3156 -139.548 29.6369 -139.548 28.7998C-139.548 27.9627 -138.869 27.284 -138.032 27.284C-137.195 27.284 -136.516 27.9627 -136.516 28.7998Z" fill="#DCDBF4"/>
<path d="M-127.421 28.7998C-127.421 29.6369 -128.1 30.3156 -128.937 30.3156C-129.774 30.3156 -130.453 29.6369 -130.453 28.7998C-130.453 27.9627 -129.774 27.284 -128.937 27.284C-128.1 27.284 -127.421 27.9627 -127.421 28.7998Z" fill="#DCDBF4"/>
<path d="M-154.705 37.8945C-154.705 38.7316 -155.384 39.4102 -156.221 39.4102C-157.058 39.4102 -157.737 38.7316 -157.737 37.8945C-157.737 37.0573 -157.058 36.3787 -156.221 36.3787C-155.384 36.3787 -154.705 37.0573 -154.705 37.8945Z" fill="#DCDBF4"/>
<path d="M-145.61 37.8946C-145.61 38.7318 -146.289 39.4104 -147.126 39.4104C-147.963 39.4104 -148.642 38.7318 -148.642 37.8946C-148.642 37.0575 -147.963 36.3789 -147.126 36.3789C-146.289 36.3789 -145.61 37.0575 -145.61 37.8946Z" fill="#DCDBF4"/>
<path d="M-136.516 37.8946C-136.516 38.7317 -137.194 39.4104 -138.032 39.4104C-138.869 39.4104 -139.547 38.7317 -139.547 37.8946C-139.547 37.0575 -138.869 36.3788 -138.032 36.3788C-137.194 36.3788 -136.516 37.0575 -136.516 37.8946Z" fill="#DCDBF4"/>
<path d="M-127.421 37.8946C-127.421 38.7318 -128.1 39.4104 -128.937 39.4104C-129.774 39.4104 -130.453 38.7318 -130.453 37.8946C-130.453 37.0575 -129.774 36.3788 -128.937 36.3788C-128.1 36.3788 -127.421 37.0575 -127.421 37.8946Z" fill="#DCDBF4"/>
<path d="M-154.705 46.9892C-154.705 47.8263 -155.383 48.5049 -156.221 48.5049C-157.058 48.5049 -157.736 47.8263 -157.736 46.9892C-157.736 46.152 -157.058 45.4734 -156.221 45.4734C-155.383 45.4734 -154.705 46.152 -154.705 46.9892Z" fill="#DCDBF4"/>
<path d="M-145.61 46.9891C-145.61 47.8263 -146.289 48.5049 -147.126 48.5049C-147.963 48.5049 -148.642 47.8263 -148.642 46.9891C-148.642 46.152 -147.963 45.4734 -147.126 45.4734C-146.289 45.4734 -145.61 46.152 -145.61 46.9891Z" fill="#DCDBF4"/>
<path d="M-136.516 46.9891C-136.516 47.8263 -137.194 48.5049 -138.031 48.5049C-138.869 48.5049 -139.547 47.8263 -139.547 46.9891C-139.547 46.152 -138.869 45.4734 -138.031 45.4734C-137.194 45.4734 -136.516 46.152 -136.516 46.9891Z" fill="#DCDBF4"/>
<path d="M-127.421 46.9891C-127.421 47.8263 -128.1 48.5049 -128.937 48.5049C-129.774 48.5049 -130.453 47.8263 -130.453 46.9891C-130.453 46.152 -129.774 45.4734 -128.937 45.4734C-128.1 45.4734 -127.421 46.152 -127.421 46.9891Z" fill="#DCDBF4"/>
<path d="M-154.705 56.0837C-154.705 56.9208 -155.384 57.5995 -156.221 57.5995C-157.058 57.5995 -157.736 56.9208 -157.736 56.0837C-157.736 55.2466 -157.058 54.5679 -156.221 54.5679C-155.384 54.5679 -154.705 55.2466 -154.705 56.0837Z" fill="#DCDBF4"/>
<path d="M-145.61 56.0836C-145.61 56.9208 -146.289 57.5994 -147.126 57.5994C-147.963 57.5994 -148.642 56.9208 -148.642 56.0836C-148.642 55.2465 -147.963 54.5679 -147.126 54.5679C-146.289 54.5679 -145.61 55.2465 -145.61 56.0836Z" fill="#DCDBF4"/>
<path d="M-136.516 56.0836C-136.516 56.9208 -137.194 57.5994 -138.032 57.5994C-138.869 57.5994 -139.547 56.9208 -139.547 56.0836C-139.547 55.2465 -138.869 54.5679 -138.032 54.5679C-137.194 54.5679 -136.516 55.2465 -136.516 56.0836Z" fill="#DCDBF4"/>
<path d="M-127.421 56.0836C-127.421 56.9208 -128.1 57.5994 -128.937 57.5994C-129.774 57.5994 -130.453 56.9208 -130.453 56.0836C-130.453 55.2465 -129.774 54.5679 -128.937 54.5679C-128.1 54.5679 -127.421 55.2465 -127.421 56.0836Z" fill="#DCDBF4"/>
<path d="M-154.705 65.1783C-154.705 66.0154 -155.384 66.6941 -156.221 66.6941C-157.058 66.6941 -157.737 66.0154 -157.737 65.1783C-157.737 64.3412 -157.058 63.6625 -156.221 63.6625C-155.384 63.6625 -154.705 64.3412 -154.705 65.1783Z" fill="#DCDBF4"/>
<path d="M-145.611 65.1783C-145.611 66.0154 -146.289 66.694 -147.126 66.694C-147.963 66.694 -148.642 66.0154 -148.642 65.1783C-148.642 64.3411 -147.963 63.6625 -147.126 63.6625C-146.289 63.6625 -145.611 64.3411 -145.611 65.1783Z" fill="#DCDBF4"/>
<path d="M-136.516 65.1782C-136.516 66.0154 -137.195 66.694 -138.032 66.694C-138.869 66.694 -139.547 66.0154 -139.547 65.1782C-139.547 64.3411 -138.869 63.6625 -138.032 63.6625C-137.195 63.6625 -136.516 64.3411 -136.516 65.1782Z" fill="#DCDBF4"/>
<path d="M-127.421 65.1784C-127.421 66.0155 -128.1 66.6942 -128.937 66.6942C-129.774 66.6942 -130.453 66.0155 -130.453 65.1784C-130.453 64.3413 -129.774 63.6626 -128.937 63.6626C-128.1 63.6626 -127.421 64.3413 -127.421 65.1784Z" fill="#DCDBF4"/>
<path d="M-154.705 74.2728C-154.705 75.1099 -155.384 75.7885 -156.221 75.7885C-157.058 75.7885 -157.737 75.1099 -157.737 74.2728C-157.737 73.4356 -157.058 72.757 -156.221 72.757C-155.384 72.757 -154.705 73.4356 -154.705 74.2728Z" fill="#DCDBF4"/>
<path d="M-145.611 74.2727C-145.611 75.1099 -146.289 75.7885 -147.126 75.7885C-147.963 75.7885 -148.642 75.1099 -148.642 74.2727C-148.642 73.4356 -147.963 72.757 -147.126 72.757C-146.289 72.757 -145.611 73.4356 -145.611 74.2727Z" fill="#DCDBF4"/>
<path d="M-136.516 74.2729C-136.516 75.11 -137.194 75.7887 -138.031 75.7887C-138.869 75.7887 -139.547 75.11 -139.547 74.2729C-139.547 73.4357 -138.869 72.7571 -138.031 72.7571C-137.194 72.7571 -136.516 73.4357 -136.516 74.2729Z" fill="#DCDBF4"/>
<path d="M-127.421 74.2729C-127.421 75.11 -128.1 75.7887 -128.937 75.7887C-129.774 75.7887 -130.453 75.11 -130.453 74.2729C-130.453 73.4357 -129.774 72.7571 -128.937 72.7571C-128.1 72.7571 -127.421 73.4357 -127.421 74.2729Z" fill="#DCDBF4"/>
<path d="M-154.705 83.3676C-154.705 84.2047 -155.384 84.8833 -156.221 84.8833C-157.058 84.8833 -157.736 84.2047 -157.736 83.3676C-157.736 82.5304 -157.058 81.8518 -156.221 81.8518C-155.384 81.8518 -154.705 82.5304 -154.705 83.3676Z" fill="#DCDBF4"/>
<path d="M-145.61 83.3676C-145.61 84.2047 -146.289 84.8833 -147.126 84.8833C-147.963 84.8833 -148.642 84.2047 -148.642 83.3676C-148.642 82.5304 -147.963 81.8518 -147.126 81.8518C-146.289 81.8518 -145.61 82.5304 -145.61 83.3676Z" fill="#DCDBF4"/>
<path d="M-136.516 83.3676C-136.516 84.2047 -137.194 84.8834 -138.031 84.8834C-138.869 84.8834 -139.547 84.2047 -139.547 83.3676C-139.547 82.5305 -138.869 81.8518 -138.031 81.8518C-137.194 81.8518 -136.516 82.5305 -136.516 83.3676Z" fill="#DCDBF4"/>
<path d="M-127.421 83.3676C-127.421 84.2047 -128.1 84.8833 -128.937 84.8833C-129.774 84.8833 -130.453 84.2047 -130.453 83.3676C-130.453 82.5304 -129.774 81.8518 -128.937 81.8518C-128.1 81.8518 -127.421 82.5304 -127.421 83.3676Z" fill="#DCDBF4"/>
<path d="M-118.327 46.989C-118.327 47.8261 -119.005 48.5047 -119.843 48.5047C-120.68 48.5047 -121.358 47.8261 -121.358 46.989C-121.358 46.1518 -120.68 45.4732 -119.843 45.4732C-119.005 45.4732 -118.327 46.1518 -118.327 46.989Z" fill="#DCDBF4"/>
<path d="M-109.232 46.989C-109.232 47.8261 -109.911 48.5047 -110.748 48.5047C-111.585 48.5047 -112.264 47.8261 -112.264 46.989C-112.264 46.1518 -111.585 45.4732 -110.748 45.4732C-109.911 45.4732 -109.232 46.1518 -109.232 46.989Z" fill="#DCDBF4"/>
<path d="M-100.138 46.989C-100.138 47.8261 -100.816 48.5047 -101.653 48.5047C-102.49 48.5047 -103.169 47.8261 -103.169 46.989C-103.169 46.1518 -102.49 45.4732 -101.653 45.4732C-100.816 45.4732 -100.138 46.1518 -100.138 46.989Z" fill="#DCDBF4"/>
<path d="M-91.0429 46.9889C-91.0429 47.8261 -91.7216 48.5047 -92.5587 48.5047C-93.3958 48.5047 -94.0745 47.8261 -94.0745 46.9889C-94.0745 46.1518 -93.3958 45.4732 -92.5587 45.4732C-91.7216 45.4732 -91.0429 46.1518 -91.0429 46.9889Z" fill="#DCDBF4"/>
<path d="M-118.327 56.0834C-118.327 56.9206 -119.006 57.5992 -119.843 57.5992C-120.68 57.5992 -121.359 56.9206 -121.359 56.0834C-121.359 55.2463 -120.68 54.5676 -119.843 54.5676C-119.006 54.5676 -118.327 55.2463 -118.327 56.0834Z" fill="#DCDBF4"/>
<path d="M-109.232 56.0834C-109.232 56.9206 -109.911 57.5992 -110.748 57.5992C-111.585 57.5992 -112.264 56.9206 -112.264 56.0834C-112.264 55.2463 -111.585 54.5676 -110.748 54.5676C-109.911 54.5676 -109.232 55.2463 -109.232 56.0834Z" fill="#DCDBF4"/>
<path d="M-100.138 56.0834C-100.138 56.9205 -100.816 57.5992 -101.654 57.5992C-102.491 57.5992 -103.169 56.9205 -103.169 56.0834C-103.169 55.2463 -102.491 54.5676 -101.654 54.5676C-100.816 54.5676 -100.138 55.2463 -100.138 56.0834Z" fill="#DCDBF4"/>
<path d="M-91.0432 56.0834C-91.0432 56.9205 -91.7218 57.5992 -92.559 57.5992C-93.3961 57.5992 -94.0747 56.9205 -94.0747 56.0834C-94.0747 55.2463 -93.3961 54.5676 -92.559 54.5676C-91.7218 54.5676 -91.0432 55.2463 -91.0432 56.0834Z" fill="#DCDBF4"/>
<path d="M-118.327 65.1783C-118.327 66.0155 -119.005 66.6941 -119.842 66.6941C-120.68 66.6941 -121.358 66.0155 -121.358 65.1783C-121.358 64.3412 -120.68 63.6626 -119.842 63.6626C-119.005 63.6626 -118.327 64.3412 -118.327 65.1783Z" fill="#DCDBF4"/>
<path d="M-109.232 65.1782C-109.232 66.0154 -109.911 66.694 -110.748 66.694C-111.585 66.694 -112.264 66.0154 -112.264 65.1782C-112.264 64.3411 -111.585 63.6625 -110.748 63.6625C-109.911 63.6625 -109.232 64.3411 -109.232 65.1782Z" fill="#DCDBF4"/>
<path d="M-100.137 65.1784C-100.137 66.0155 -100.816 66.6941 -101.653 66.6941C-102.49 66.6941 -103.169 66.0155 -103.169 65.1784C-103.169 64.3412 -102.49 63.6626 -101.653 63.6626C-100.816 63.6626 -100.137 64.3412 -100.137 65.1784Z" fill="#DCDBF4"/>
<path d="M-91.0426 65.1784C-91.0426 66.0155 -91.7213 66.6942 -92.5584 66.6942C-93.3955 66.6942 -94.0742 66.0155 -94.0742 65.1784C-94.0742 64.3412 -93.3955 63.6626 -92.5584 63.6626C-91.7213 63.6626 -91.0426 64.3412 -91.0426 65.1784Z" fill="#DCDBF4"/>
<path d="M-118.327 74.2728C-118.327 75.1099 -119.005 75.7886 -119.843 75.7886C-120.68 75.7886 -121.358 75.1099 -121.358 74.2728C-121.358 73.4357 -120.68 72.757 -119.843 72.757C-119.005 72.757 -118.327 73.4357 -118.327 74.2728Z" fill="#DCDBF4"/>
<path d="M-109.232 74.2727C-109.232 75.1099 -109.911 75.7885 -110.748 75.7885C-111.585 75.7885 -112.264 75.1099 -112.264 74.2727C-112.264 73.4356 -111.585 72.757 -110.748 72.757C-109.911 72.757 -109.232 73.4356 -109.232 74.2727Z" fill="#DCDBF4"/>
<path d="M-100.138 74.2727C-100.138 75.1099 -100.816 75.7885 -101.653 75.7885C-102.49 75.7885 -103.169 75.1099 -103.169 74.2727C-103.169 73.4356 -102.49 72.757 -101.653 72.757C-100.816 72.757 -100.138 73.4356 -100.138 74.2727Z" fill="#DCDBF4"/>
<path d="M-91.0429 74.2727C-91.0429 75.1099 -91.7216 75.7885 -92.5587 75.7885C-93.3958 75.7885 -94.0745 75.1099 -94.0745 74.2727C-94.0745 73.4356 -93.3958 72.757 -92.5587 72.757C-91.7216 72.757 -91.0429 73.4356 -91.0429 74.2727Z" fill="#DCDBF4"/>
<path d="M-118.327 83.3674C-118.327 84.2045 -119.005 84.8832 -119.843 84.8832C-120.68 84.8832 -121.358 84.2045 -121.358 83.3674C-121.358 82.5303 -120.68 81.8516 -119.843 81.8516C-119.005 81.8516 -118.327 82.5303 -118.327 83.3674Z" fill="#DCDBF4"/>
<path d="M-109.232 83.3674C-109.232 84.2045 -109.911 84.8832 -110.748 84.8832C-111.585 84.8832 -112.264 84.2045 -112.264 83.3674C-112.264 82.5303 -111.585 81.8516 -110.748 81.8516C-109.911 81.8516 -109.232 82.5303 -109.232 83.3674Z" fill="#DCDBF4"/>
<path d="M-100.138 83.3674C-100.138 84.2045 -100.816 84.8831 -101.653 84.8831C-102.491 84.8831 -103.169 84.2045 -103.169 83.3674C-103.169 82.5302 -102.491 81.8516 -101.653 81.8516C-100.816 81.8516 -100.138 82.5302 -100.138 83.3674Z" fill="#DCDBF4"/>
<path d="M-91.043 83.3674C-91.043 84.2045 -91.7216 84.8831 -92.5588 84.8831C-93.3959 84.8831 -94.0746 84.2045 -94.0746 83.3674C-94.0746 82.5303 -93.3959 81.8516 -92.5588 81.8516C-91.7216 81.8516 -91.043 82.5303 -91.043 83.3674Z" fill="#DCDBF4"/>
<path d="M-81.9483 46.989C-81.9483 47.8261 -82.6269 48.5048 -83.4641 48.5048C-84.3012 48.5048 -84.9799 47.8261 -84.9799 46.989C-84.9799 46.1518 -84.3012 45.4732 -83.4641 45.4732C-82.6269 45.4732 -81.9483 46.1518 -81.9483 46.989Z" fill="#DCDBF4"/>
<path d="M-72.8536 46.989C-72.8536 47.8261 -73.5323 48.5048 -74.3694 48.5048C-75.2065 48.5048 -75.8852 47.8261 -75.8852 46.989C-75.8852 46.1519 -75.2065 45.4732 -74.3694 45.4732C-73.5323 45.4732 -72.8536 46.1519 -72.8536 46.989Z" fill="#DCDBF4"/>
<path d="M-63.759 46.989C-63.759 47.8261 -64.4377 48.5048 -65.2748 48.5048C-66.1119 48.5048 -66.7906 47.8261 -66.7906 46.989C-66.7906 46.1519 -66.1119 45.4732 -65.2748 45.4732C-64.4377 45.4732 -63.759 46.1519 -63.759 46.989Z" fill="#DCDBF4"/>
<path d="M-54.6644 46.989C-54.6644 47.8261 -55.3431 48.5047 -56.1802 48.5047C-57.0173 48.5047 -57.696 47.8261 -57.696 46.989C-57.696 46.1518 -57.0173 45.4732 -56.1802 45.4732C-55.3431 45.4732 -54.6644 46.1518 -54.6644 46.989Z" fill="#DCDBF4"/>
<path d="M-81.9483 56.0836C-81.9483 56.9207 -82.6269 57.5993 -83.464 57.5993C-84.3012 57.5993 -84.9798 56.9207 -84.9798 56.0836C-84.9798 55.2464 -84.3012 54.5678 -83.464 54.5678C-82.6269 54.5678 -81.9483 55.2464 -81.9483 56.0836Z" fill="#DCDBF4"/>
<path d="M-72.8537 56.0835C-72.8537 56.9207 -73.5323 57.5993 -74.3694 57.5993C-75.2066 57.5993 -75.8852 56.9207 -75.8852 56.0835C-75.8852 55.2464 -75.2066 54.5678 -74.3694 54.5678C-73.5323 54.5678 -72.8537 55.2464 -72.8537 56.0835Z" fill="#DCDBF4"/>
<path d="M-63.7591 56.0835C-63.7591 56.9207 -64.4377 57.5993 -65.2748 57.5993C-66.112 57.5993 -66.7906 56.9207 -66.7906 56.0835C-66.7906 55.2464 -66.112 54.5678 -65.2748 54.5678C-64.4377 54.5678 -63.7591 55.2464 -63.7591 56.0835Z" fill="#DCDBF4"/>
<path d="M-54.6642 56.0837C-54.6642 56.9208 -55.3428 57.5994 -56.1799 57.5994C-57.0171 57.5994 -57.6957 56.9208 -57.6957 56.0837C-57.6957 55.2465 -57.0171 54.5679 -56.1799 54.5679C-55.3428 54.5679 -54.6642 55.2465 -54.6642 56.0837Z" fill="#DCDBF4"/>
<path d="M-81.9482 65.1783C-81.9482 66.0155 -82.6268 66.6941 -83.464 66.6941C-84.3011 66.6941 -84.9798 66.0155 -84.9798 65.1783C-84.9798 64.3412 -84.3011 63.6626 -83.464 63.6626C-82.6268 63.6626 -81.9482 64.3412 -81.9482 65.1783Z" fill="#DCDBF4"/>
<path d="M-72.8536 65.1783C-72.8536 66.0154 -73.5322 66.694 -74.3694 66.694C-75.2065 66.694 -75.8851 66.0154 -75.8851 65.1783C-75.8851 64.3411 -75.2065 63.6625 -74.3694 63.6625C-73.5322 63.6625 -72.8536 64.3411 -72.8536 65.1783Z" fill="#DCDBF4"/>
<path d="M-63.759 65.1783C-63.759 66.0154 -64.4376 66.694 -65.2748 66.694C-66.1119 66.694 -66.7905 66.0154 -66.7905 65.1783C-66.7905 64.3411 -66.1119 63.6625 -65.2748 63.6625C-64.4376 63.6625 -63.759 64.3411 -63.759 65.1783Z" fill="#DCDBF4"/>
<path d="M-54.6644 65.1783C-54.6644 66.0154 -55.343 66.694 -56.1802 66.694C-57.0173 66.694 -57.6959 66.0154 -57.6959 65.1783C-57.6959 64.3411 -57.0173 63.6625 -56.1802 63.6625C-55.343 63.6625 -54.6644 64.3411 -54.6644 65.1783Z" fill="#DCDBF4"/>
<path d="M-81.9481 74.2728C-81.9481 75.1099 -82.6268 75.7886 -83.4639 75.7886C-84.301 75.7886 -84.9797 75.1099 -84.9797 74.2728C-84.9797 73.4357 -84.301 72.757 -83.4639 72.757C-82.6268 72.757 -81.9481 73.4357 -81.9481 74.2728Z" fill="#DCDBF4"/>
<path d="M-72.8536 74.2728C-72.8536 75.1099 -73.5322 75.7885 -74.3694 75.7885C-75.2065 75.7885 -75.8851 75.1099 -75.8851 74.2728C-75.8851 73.4356 -75.2065 72.757 -74.3694 72.757C-73.5322 72.757 -72.8536 73.4356 -72.8536 74.2728Z" fill="#DCDBF4"/>
<path d="M-63.759 74.2728C-63.759 75.1099 -64.4376 75.7885 -65.2748 75.7885C-66.1119 75.7885 -66.7906 75.1099 -66.7906 74.2728C-66.7906 73.4356 -66.1119 72.757 -65.2748 72.757C-64.4376 72.757 -63.759 73.4356 -63.759 74.2728Z" fill="#DCDBF4"/>
<path d="M-54.6644 74.2727C-54.6644 75.1099 -55.343 75.7885 -56.1802 75.7885C-57.0173 75.7885 -57.6959 75.1099 -57.6959 74.2727C-57.6959 73.4356 -57.0173 72.757 -56.1802 72.757C-55.343 72.757 -54.6644 73.4356 -54.6644 74.2727Z" fill="#DCDBF4"/>
<path d="M-81.9483 83.3674C-81.9483 84.2046 -82.6269 84.8832 -83.464 84.8832C-84.3012 84.8832 -84.9798 84.2046 -84.9798 83.3674C-84.9798 82.5303 -84.3012 81.8517 -83.464 81.8517C-82.6269 81.8517 -81.9483 82.5303 -81.9483 83.3674Z" fill="#DCDBF4"/>
<path d="M-72.8534 83.3676C-72.8534 84.2047 -73.532 84.8834 -74.3692 84.8834C-75.2063 84.8834 -75.8849 84.2047 -75.8849 83.3676C-75.8849 82.5304 -75.2063 81.8518 -74.3692 81.8518C-73.532 81.8518 -72.8534 82.5304 -72.8534 83.3676Z" fill="#DCDBF4"/>
<path d="M-63.7588 83.3676C-63.7588 84.2047 -64.4374 84.8833 -65.2746 84.8833C-66.1117 84.8833 -66.7903 84.2047 -66.7903 83.3676C-66.7903 82.5304 -66.1117 81.8518 -65.2746 81.8518C-64.4374 81.8518 -63.7588 82.5304 -63.7588 83.3676Z" fill="#DCDBF4"/>
<path d="M-54.6642 83.3676C-54.6642 84.2047 -55.3428 84.8833 -56.18 84.8833C-57.0171 84.8833 -57.6958 84.2047 -57.6958 83.3676C-57.6958 82.5304 -57.0171 81.8518 -56.18 81.8518C-55.3428 81.8518 -54.6642 82.5304 -54.6642 83.3676Z" fill="#DCDBF4"/>
<path d="M-118.327 1.51604C-118.327 2.35318 -119.005 3.03181 -119.842 3.03181C-120.68 3.03181 -121.358 2.35318 -121.358 1.51604C-121.358 0.678906 -120.68 0.00027338 -119.842 0.00027338C-119.005 0.00027338 -118.327 0.678906 -118.327 1.51604Z" fill="#DCDBF4"/>
<path d="M-109.232 1.51601C-109.232 2.35314 -109.911 3.03177 -110.748 3.03177C-111.585 3.03177 -112.264 2.35314 -112.264 1.51601C-112.264 0.67887 -111.585 0.000237775 -110.748 0.000237775C-109.911 0.000237775 -109.232 0.67887 -109.232 1.51601Z" fill="#DCDBF4"/>
<path d="M-100.137 1.51598C-100.137 2.35311 -100.816 3.03175 -101.653 3.03175C-102.49 3.03175 -103.169 2.35311 -103.169 1.51598C-103.169 0.678843 -102.49 0.000210655 -101.653 0.000210655C-100.816 0.000210655 -100.137 0.678843 -100.137 1.51598Z" fill="#DCDBF4"/>
<path d="M-91.0429 1.51599C-91.0429 2.35312 -91.7215 3.03176 -92.5586 3.03176C-93.3958 3.03176 -94.0744 2.35312 -94.0744 1.51599C-94.0744 0.678851 -93.3958 0.00021884 -92.5586 0.00021884C-91.7215 0.00021884 -91.0429 0.678851 -91.0429 1.51599Z" fill="#DCDBF4"/>
<path d="M-118.327 10.6105C-118.327 11.4477 -119.005 12.1263 -119.842 12.1263C-120.68 12.1263 -121.358 11.4477 -121.358 10.6105C-121.358 9.7734 -120.68 9.09477 -119.842 9.09477C-119.005 9.09477 -118.327 9.7734 -118.327 10.6105Z" fill="#DCDBF4"/>
<path d="M-109.232 10.6107C-109.232 11.4478 -109.91 12.1265 -110.748 12.1265C-111.585 12.1265 -112.263 11.4478 -112.263 10.6107C-112.263 9.77356 -111.585 9.09492 -110.748 9.09492C-109.91 9.09492 -109.232 9.77356 -109.232 10.6107Z" fill="#DCDBF4"/>
<path d="M-100.137 10.6107C-100.137 11.4478 -100.816 12.1264 -101.653 12.1264C-102.49 12.1264 -103.169 11.4478 -103.169 10.6107C-103.169 9.77354 -102.49 9.0949 -101.653 9.0949C-100.816 9.0949 -100.137 9.77354 -100.137 10.6107Z" fill="#DCDBF4"/>
<path d="M-91.0429 10.6105C-91.0429 11.4476 -91.7215 12.1263 -92.5586 12.1263C-93.3958 12.1263 -94.0744 11.4476 -94.0744 10.6105C-94.0744 9.77337 -93.3958 9.09474 -92.5586 9.09474C-91.7215 9.09474 -91.0429 9.77337 -91.0429 10.6105Z" fill="#DCDBF4"/>
<path d="M-118.327 19.7053C-118.327 20.5424 -119.005 21.2211 -119.842 21.2211C-120.679 21.2211 -121.358 20.5424 -121.358 19.7053C-121.358 18.8682 -120.679 18.1895 -119.842 18.1895C-119.005 18.1895 -118.327 18.8682 -118.327 19.7053Z" fill="#DCDBF4"/>
<path d="M-109.232 19.7053C-109.232 20.5424 -109.911 21.221 -110.748 21.221C-111.585 21.221 -112.264 20.5424 -112.264 19.7053C-112.264 18.8681 -111.585 18.1895 -110.748 18.1895C-109.911 18.1895 -109.232 18.8681 -109.232 19.7053Z" fill="#DCDBF4"/>
<path d="M-100.137 19.7052C-100.137 20.5424 -100.816 21.221 -101.653 21.221C-102.49 21.221 -103.169 20.5424 -103.169 19.7052C-103.169 18.8681 -102.49 18.1895 -101.653 18.1895C-100.816 18.1895 -100.137 18.8681 -100.137 19.7052Z" fill="#DCDBF4"/>
<path d="M-91.0428 19.7052C-91.0428 20.5424 -91.7215 21.221 -92.5586 21.221C-93.3957 21.221 -94.0744 20.5424 -94.0744 19.7052C-94.0744 18.8681 -93.3957 18.1895 -92.5586 18.1895C-91.7215 18.1895 -91.0428 18.8681 -91.0428 19.7052Z" fill="#DCDBF4"/>
<path d="M-118.327 28.7999C-118.327 29.637 -119.005 30.3157 -119.842 30.3157C-120.68 30.3157 -121.358 29.637 -121.358 28.7999C-121.358 27.9628 -120.68 27.2841 -119.842 27.2841C-119.005 27.2841 -118.327 27.9628 -118.327 28.7999Z" fill="#DCDBF4"/>
<path d="M-109.232 28.7999C-109.232 29.637 -109.911 30.3156 -110.748 30.3156C-111.585 30.3156 -112.264 29.637 -112.264 28.7999C-112.264 27.9627 -111.585 27.2841 -110.748 27.2841C-109.911 27.2841 -109.232 27.9627 -109.232 28.7999Z" fill="#DCDBF4"/>
<path d="M-100.137 28.7998C-100.137 29.637 -100.816 30.3156 -101.653 30.3156C-102.49 30.3156 -103.169 29.637 -103.169 28.7998C-103.169 27.9627 -102.49 27.2841 -101.653 27.2841C-100.816 27.2841 -100.137 27.9627 -100.137 28.7998Z" fill="#DCDBF4"/>
<path d="M-91.0429 28.7998C-91.0429 29.637 -91.7215 30.3156 -92.5587 30.3156C-93.3958 30.3156 -94.0744 29.637 -94.0744 28.7998C-94.0744 27.9627 -93.3958 27.2841 -92.5587 27.2841C-91.7215 27.2841 -91.0429 27.9627 -91.0429 28.7998Z" fill="#DCDBF4"/>
<path d="M-118.327 37.8945C-118.327 38.7317 -119.005 39.4103 -119.843 39.4103C-120.68 39.4103 -121.358 38.7317 -121.358 37.8945C-121.358 37.0574 -120.68 36.3788 -119.843 36.3788C-119.005 36.3788 -118.327 37.0574 -118.327 37.8945Z" fill="#DCDBF4"/>
<path d="M-109.232 37.8945C-109.232 38.7316 -109.911 39.4103 -110.748 39.4103C-111.585 39.4103 -112.264 38.7316 -112.264 37.8945C-112.264 37.0574 -111.585 36.3787 -110.748 36.3787C-109.911 36.3787 -109.232 37.0574 -109.232 37.8945Z" fill="#DCDBF4"/>
<path d="M-100.138 37.8945C-100.138 38.7316 -100.816 39.4102 -101.653 39.4102C-102.49 39.4102 -103.169 38.7316 -103.169 37.8945C-103.169 37.0573 -102.49 36.3787 -101.653 36.3787C-100.816 36.3787 -100.138 37.0573 -100.138 37.8945Z" fill="#DCDBF4"/>
<path d="M-91.043 37.8945C-91.043 38.7316 -91.7216 39.4102 -92.5587 39.4102C-93.3959 39.4102 -94.0745 38.7316 -94.0745 37.8945C-94.0745 37.0573 -93.3959 36.3787 -92.5587 36.3787C-91.7216 36.3787 -91.043 37.0573 -91.043 37.8945Z" fill="#DCDBF4"/>
<path d="M-81.9485 1.51582C-81.9485 2.35296 -82.6271 3.03159 -83.4642 3.03159C-84.3014 3.03159 -84.98 2.35296 -84.98 1.51582C-84.98 0.678685 -84.3014 5.22035e-05 -83.4642 5.22035e-05C-82.6271 5.22035e-05 -81.9485 0.678685 -81.9485 1.51582Z" fill="#DCDBF4"/>
<path d="M-72.854 1.51577C-72.854 2.35291 -73.5326 3.03154 -74.3697 3.03154C-75.2069 3.03154 -75.8855 2.35291 -75.8855 1.51577C-75.8855 0.678636 -75.2069 3.2035e-06 -74.3697 3.2035e-06C-73.5326 3.2035e-06 -72.854 0.678636 -72.854 1.51577Z" fill="#DCDBF4"/>
<path d="M-63.7594 1.51577C-63.7594 2.3529 -64.438 3.03154 -65.2752 3.03154C-66.1123 3.03154 -66.7909 2.3529 -66.7909 1.51577C-66.7909 0.678633 -66.1123 0 -65.2752 0C-64.438 0 -63.7594 0.678633 -63.7594 1.51577Z" fill="#DCDBF4"/>
<path d="M-54.6648 1.51578C-54.6648 2.35291 -55.3434 3.03154 -56.1806 3.03154C-57.0177 3.03154 -57.6963 2.35291 -57.6963 1.51578C-57.6963 0.678641 -57.0177 8.18496e-06 -56.1806 8.18496e-06C-55.3434 8.18496e-06 -54.6648 0.678641 -54.6648 1.51578Z" fill="#DCDBF4"/>
<path d="M-81.9485 10.6104C-81.9485 11.4475 -82.6272 12.1261 -83.4643 12.1261C-84.3014 12.1261 -84.9801 11.4475 -84.9801 10.6104C-84.9801 9.77324 -84.3014 9.09461 -83.4643 9.09461C-82.6272 9.09461 -81.9485 9.77324 -81.9485 10.6104Z" fill="#DCDBF4"/>
<path d="M-72.854 10.6103C-72.854 11.4475 -73.5327 12.1261 -74.3698 12.1261C-75.2069 12.1261 -75.8856 11.4475 -75.8856 10.6103C-75.8856 9.7732 -75.2069 9.09457 -74.3698 9.09457C-73.5327 9.09457 -72.854 9.7732 -72.854 10.6103Z" fill="#DCDBF4"/>
<path d="M-63.7594 10.6103C-63.7594 11.4474 -64.438 12.1261 -65.2752 12.1261C-66.1123 12.1261 -66.7909 11.4474 -66.7909 10.6103C-66.7909 9.77316 -66.1123 9.09453 -65.2752 9.09453C-64.438 9.09453 -63.7594 9.77316 -63.7594 10.6103Z" fill="#DCDBF4"/>
<path d="M-54.6648 10.6103C-54.6648 11.4474 -55.3435 12.1261 -56.1806 12.1261C-57.0177 12.1261 -57.6964 11.4474 -57.6964 10.6103C-57.6964 9.77317 -57.0177 9.09454 -56.1806 9.09454C-55.3435 9.09454 -54.6648 9.77317 -54.6648 10.6103Z" fill="#DCDBF4"/>
<path d="M-81.9484 19.7052C-81.9484 20.5423 -82.627 21.2209 -83.4641 21.2209C-84.3013 21.2209 -84.9799 20.5423 -84.9799 19.7052C-84.9799 18.868 -84.3013 18.1894 -83.4641 18.1894C-82.627 18.1894 -81.9484 18.868 -81.9484 19.7052Z" fill="#DCDBF4"/>
<path d="M-72.8537 19.7051C-72.8537 20.5423 -73.5324 21.2209 -74.3695 21.2209C-75.2066 21.2209 -75.8853 20.5423 -75.8853 19.7051C-75.8853 18.868 -75.2066 18.1894 -74.3695 18.1894C-73.5324 18.1894 -72.8537 18.868 -72.8537 19.7051Z" fill="#DCDBF4"/>
<path d="M-63.7591 19.7051C-63.7591 20.5423 -64.4378 21.2209 -65.2749 21.2209C-66.112 21.2209 -66.7907 20.5423 -66.7907 19.7051C-66.7907 18.868 -66.112 18.1894 -65.2749 18.1894C-64.4378 18.1894 -63.7591 18.868 -63.7591 19.7051Z" fill="#DCDBF4"/>
<path d="M-54.6642 19.7053C-54.6642 20.5424 -55.3429 21.221 -56.18 21.221C-57.0171 21.221 -57.6958 20.5424 -57.6958 19.7053C-57.6958 18.8681 -57.0171 18.1895 -56.18 18.1895C-55.3429 18.1895 -54.6642 18.8681 -54.6642 19.7053Z" fill="#DCDBF4"/>
<path d="M-81.9485 28.7997C-81.9485 29.6369 -82.6271 30.3155 -83.4642 30.3155C-84.3014 30.3155 -84.98 29.6369 -84.98 28.7997C-84.98 27.9626 -84.3014 27.284 -83.4642 27.284C-82.6271 27.284 -81.9485 27.9626 -81.9485 28.7997Z" fill="#DCDBF4"/>
<path d="M-72.8538 28.7997C-72.8538 29.6369 -73.5324 30.3155 -74.3695 30.3155C-75.2067 30.3155 -75.8853 29.6369 -75.8853 28.7997C-75.8853 27.9626 -75.2067 27.284 -74.3695 27.284C-73.5324 27.284 -72.8538 27.9626 -72.8538 28.7997Z" fill="#DCDBF4"/>
<path d="M-63.7592 28.7997C-63.7592 29.6369 -64.4378 30.3155 -65.275 30.3155C-66.1121 30.3155 -66.7907 29.6369 -66.7907 28.7997C-66.7907 27.9626 -66.1121 27.284 -65.275 27.284C-64.4378 27.284 -63.7592 27.9626 -63.7592 28.7997Z" fill="#DCDBF4"/>
<path d="M-54.6646 28.7997C-54.6646 29.6369 -55.3432 30.3155 -56.1804 30.3155C-57.0175 30.3155 -57.6961 29.6369 -57.6961 28.7997C-57.6961 27.9626 -57.0175 27.284 -56.1804 27.284C-55.3432 27.284 -54.6646 27.9626 -54.6646 28.7997Z" fill="#DCDBF4"/>
<path d="M-81.9483 37.8945C-81.9483 38.7316 -82.6269 39.4103 -83.4641 39.4103C-84.3012 39.4103 -84.9798 38.7316 -84.9798 37.8945C-84.9798 37.0574 -84.3012 36.3787 -83.4641 36.3787C-82.6269 36.3787 -81.9483 37.0574 -81.9483 37.8945Z" fill="#DCDBF4"/>
<path d="M-72.8537 37.8945C-72.8537 38.7316 -73.5324 39.4102 -74.3695 39.4102C-75.2066 39.4102 -75.8853 38.7316 -75.8853 37.8945C-75.8853 37.0573 -75.2066 36.3787 -74.3695 36.3787C-73.5324 36.3787 -72.8537 37.0573 -72.8537 37.8945Z" fill="#DCDBF4"/>
<path d="M-63.7591 37.8945C-63.7591 38.7316 -64.4378 39.4102 -65.2749 39.4102C-66.112 39.4102 -66.7907 38.7316 -66.7907 37.8945C-66.7907 37.0573 -66.112 36.3787 -65.2749 36.3787C-64.4378 36.3787 -63.7591 37.0573 -63.7591 37.8945Z" fill="#DCDBF4"/>
<path d="M-54.6645 37.8945C-54.6645 38.7316 -55.3432 39.4102 -56.1803 39.4102C-57.0174 39.4102 -57.6961 38.7316 -57.6961 37.8945C-57.6961 37.0573 -57.0174 36.3787 -56.1803 36.3787C-55.3432 36.3787 -54.6645 37.0573 -54.6645 37.8945Z" fill="#DCDBF4"/>
<path d="M-45.4209 1.516C-45.4209 2.35314 -46.0995 3.03177 -46.9367 3.03177C-47.7738 3.03177 -48.4524 2.35314 -48.4524 1.516C-48.4524 0.678869 -47.7738 0.000236256 -46.9367 0.000236256C-46.0995 0.000236256 -45.4209 0.678869 -45.4209 1.516Z" fill="#DCDBF4"/>
<path d="M-36.3263 1.51597C-36.3263 2.35311 -37.0049 3.03174 -37.8421 3.03174C-38.6792 3.03174 -39.3578 2.35311 -39.3578 1.51597C-39.3578 0.678838 -38.6792 0.000205775 -37.8421 0.000205775C-37.0049 0.000205775 -36.3263 0.678838 -36.3263 1.51597Z" fill="#DCDBF4"/>
<path d="M-27.2317 1.51596C-27.2317 2.3531 -27.9103 3.03173 -28.7475 3.03173C-29.5846 3.03173 -30.2632 2.3531 -30.2632 1.51596C-30.2632 0.678826 -29.5846 0.000193745 -28.7475 0.000193745C-27.9103 0.000193745 -27.2317 0.678826 -27.2317 1.51596Z" fill="#DCDBF4"/>
<path d="M-18.1371 1.51597C-18.1371 2.35311 -18.8157 3.03174 -19.6529 3.03174C-20.49 3.03174 -21.1686 2.35311 -21.1686 1.51597C-21.1686 0.678835 -20.49 0.0002025 -19.6529 0.0002025C-18.8157 0.0002025 -18.1371 0.678835 -18.1371 1.51597Z" fill="#DCDBF4"/>
<path d="M-45.4211 10.6105C-45.4211 11.4477 -46.0997 12.1263 -46.9368 12.1263C-47.774 12.1263 -48.4526 11.4477 -48.4526 10.6105C-48.4526 9.77339 -47.774 9.09476 -46.9368 9.09476C-46.0997 9.09476 -45.4211 9.77339 -45.4211 10.6105Z" fill="#DCDBF4"/>
<path d="M-36.3264 10.6105C-36.3264 11.4477 -37.005 12.1263 -37.8422 12.1263C-38.6793 12.1263 -39.3579 11.4477 -39.3579 10.6105C-39.3579 9.77338 -38.6793 9.09475 -37.8422 9.09475C-37.005 9.09475 -36.3264 9.77338 -36.3264 10.6105Z" fill="#DCDBF4"/>
<path d="M-27.2315 10.6106C-27.2315 11.4478 -27.9101 12.1264 -28.7473 12.1264C-29.5844 12.1264 -30.2631 11.4478 -30.2631 10.6106C-30.2631 9.77351 -29.5844 9.09488 -28.7473 9.09488C-27.9101 9.09488 -27.2315 9.77351 -27.2315 10.6106Z" fill="#DCDBF4"/>
<path d="M-18.1372 10.6105C-18.1372 11.4476 -18.8158 12.1263 -19.653 12.1263C-20.4901 12.1263 -21.1688 11.4476 -21.1688 10.6105C-21.1688 9.77337 -20.4901 9.09474 -19.653 9.09474C-18.8158 9.09474 -18.1372 9.77337 -18.1372 10.6105Z" fill="#DCDBF4"/>
<path d="M-45.4209 19.7053C-45.4209 20.5425 -46.0995 21.2211 -46.9366 21.2211C-47.7738 21.2211 -48.4524 20.5425 -48.4524 19.7053C-48.4524 18.8682 -47.7738 18.1896 -46.9366 18.1896C-46.0995 18.1896 -45.4209 18.8682 -45.4209 19.7053Z" fill="#DCDBF4"/>
<path d="M-36.3263 19.7052C-36.3263 20.5424 -37.005 21.221 -37.8421 21.221C-38.6792 21.221 -39.3579 20.5424 -39.3579 19.7052C-39.3579 18.8681 -38.6792 18.1895 -37.8421 18.1895C-37.005 18.1895 -36.3263 18.8681 -36.3263 19.7052Z" fill="#DCDBF4"/>
<path d="M-27.2317 19.7052C-27.2317 20.5423 -27.9104 21.221 -28.7475 21.221C-29.5846 21.221 -30.2633 20.5423 -30.2633 19.7052C-30.2633 18.8681 -29.5846 18.1894 -28.7475 18.1894C-27.9104 18.1894 -27.2317 18.8681 -27.2317 19.7052Z" fill="#DCDBF4"/>
<path d="M-18.1371 19.7052C-18.1371 20.5424 -18.8158 21.221 -19.6529 21.221C-20.4901 21.221 -21.1687 20.5424 -21.1687 19.7052C-21.1687 18.8681 -20.4901 18.1895 -19.6529 18.1895C-18.8158 18.1895 -18.1371 18.8681 -18.1371 19.7052Z" fill="#DCDBF4"/>
<path d="M-45.4209 28.7999C-45.4209 29.637 -46.0996 30.3157 -46.9367 30.3157C-47.7738 30.3157 -48.4525 29.637 -48.4525 28.7999C-48.4525 27.9627 -47.7738 27.2841 -46.9367 27.2841C-46.0996 27.2841 -45.4209 27.9627 -45.4209 28.7999Z" fill="#DCDBF4"/>
<path d="M-36.3264 28.7998C-36.3264 29.6369 -37.005 30.3156 -37.8422 30.3156C-38.6793 30.3156 -39.3579 29.6369 -39.3579 28.7998C-39.3579 27.9627 -38.6793 27.284 -37.8422 27.284C-37.005 27.284 -36.3264 27.9627 -36.3264 28.7998Z" fill="#DCDBF4"/>
<path d="M-27.2318 28.7998C-27.2318 29.6369 -27.9104 30.3156 -28.7476 30.3156C-29.5847 30.3156 -30.2633 29.6369 -30.2633 28.7998C-30.2633 27.9627 -29.5847 27.284 -28.7476 27.284C-27.9104 27.284 -27.2318 27.9627 -27.2318 28.7998Z" fill="#DCDBF4"/>
<path d="M-18.1372 28.7998C-18.1372 29.6369 -18.8158 30.3156 -19.653 30.3156C-20.4901 30.3156 -21.1687 29.6369 -21.1687 28.7998C-21.1687 27.9627 -20.4901 27.284 -19.653 27.284C-18.8158 27.284 -18.1372 27.9627 -18.1372 28.7998Z" fill="#DCDBF4"/>
<path d="M-45.4211 37.8945C-45.4211 38.7316 -46.0997 39.4102 -46.9368 39.4102C-47.774 39.4102 -48.4526 38.7316 -48.4526 37.8945C-48.4526 37.0573 -47.774 36.3787 -46.9368 36.3787C-46.0997 36.3787 -45.4211 37.0573 -45.4211 37.8945Z" fill="#DCDBF4"/>
<path d="M-36.3262 37.8946C-36.3262 38.7318 -37.0048 39.4104 -37.842 39.4104C-38.6791 39.4104 -39.3577 38.7318 -39.3577 37.8946C-39.3577 37.0575 -38.6791 36.3789 -37.842 36.3789C-37.0048 36.3789 -36.3262 37.0575 -36.3262 37.8946Z" fill="#DCDBF4"/>
<path d="M-27.2316 37.8946C-27.2316 38.7317 -27.9102 39.4104 -28.7474 39.4104C-29.5845 39.4104 -30.2631 38.7317 -30.2631 37.8946C-30.2631 37.0575 -29.5845 36.3788 -28.7474 36.3788C-27.9102 36.3788 -27.2316 37.0575 -27.2316 37.8946Z" fill="#DCDBF4"/>
<path d="M-18.137 37.8946C-18.137 38.7318 -18.8156 39.4104 -19.6528 39.4104C-20.4899 39.4104 -21.1685 38.7318 -21.1685 37.8946C-21.1685 37.0575 -20.4899 36.3788 -19.6528 36.3788C-18.8156 36.3788 -18.137 37.0575 -18.137 37.8946Z" fill="#DCDBF4"/>
<path d="M-45.4207 46.9892C-45.4207 47.8263 -46.0993 48.5049 -46.9364 48.5049C-47.7736 48.5049 -48.4522 47.8263 -48.4522 46.9892C-48.4522 46.152 -47.7736 45.4734 -46.9364 45.4734C-46.0993 45.4734 -45.4207 46.152 -45.4207 46.9892Z" fill="#DCDBF4"/>
<path d="M-36.3261 46.9891C-36.3261 47.8263 -37.0047 48.5049 -37.8418 48.5049C-38.679 48.5049 -39.3576 47.8263 -39.3576 46.9891C-39.3576 46.152 -38.679 45.4734 -37.8418 45.4734C-37.0047 45.4734 -36.3261 46.152 -36.3261 46.9891Z" fill="#DCDBF4"/>
<path d="M-27.2315 46.9891C-27.2315 47.8263 -27.9101 48.5049 -28.7473 48.5049C-29.5844 48.5049 -30.263 47.8263 -30.263 46.9891C-30.263 46.152 -29.5844 45.4734 -28.7473 45.4734C-27.9101 45.4734 -27.2315 46.152 -27.2315 46.9891Z" fill="#DCDBF4"/>
<path d="M-18.1369 46.9891C-18.1369 47.8263 -18.8155 48.5049 -19.6526 48.5049C-20.4898 48.5049 -21.1684 47.8263 -21.1684 46.9891C-21.1684 46.152 -20.4898 45.4734 -19.6526 45.4734C-18.8155 45.4734 -18.1369 46.152 -18.1369 46.9891Z" fill="#DCDBF4"/>
<path d="M-45.4208 56.0837C-45.4208 56.9208 -46.0994 57.5995 -46.9365 57.5995C-47.7737 57.5995 -48.4523 56.9208 -48.4523 56.0837C-48.4523 55.2466 -47.7737 54.5679 -46.9365 54.5679C-46.0994 54.5679 -45.4208 55.2466 -45.4208 56.0837Z" fill="#DCDBF4"/>
<path d="M-36.3262 56.0836C-36.3262 56.9208 -37.0048 57.5994 -37.8419 57.5994C-38.6791 57.5994 -39.3577 56.9208 -39.3577 56.0836C-39.3577 55.2465 -38.6791 54.5679 -37.8419 54.5679C-37.0048 54.5679 -36.3262 55.2465 -36.3262 56.0836Z" fill="#DCDBF4"/>
<path d="M-27.2316 56.0836C-27.2316 56.9208 -27.9102 57.5994 -28.7473 57.5994C-29.5845 57.5994 -30.2631 56.9208 -30.2631 56.0836C-30.2631 55.2465 -29.5845 54.5679 -28.7473 54.5679C-27.9102 54.5679 -27.2316 55.2465 -27.2316 56.0836Z" fill="#DCDBF4"/>
<path d="M-18.137 56.0836C-18.137 56.9208 -18.8156 57.5994 -19.6528 57.5994C-20.4899 57.5994 -21.1685 56.9208 -21.1685 56.0836C-21.1685 55.2465 -20.4899 54.5679 -19.6528 54.5679C-18.8156 54.5679 -18.137 55.2465 -18.137 56.0836Z" fill="#DCDBF4"/>
<path d="M-45.4209 65.1783C-45.4209 66.0154 -46.0995 66.6941 -46.9366 66.6941C-47.7738 66.6941 -48.4524 66.0154 -48.4524 65.1783C-48.4524 64.3412 -47.7738 63.6625 -46.9366 63.6625C-46.0995 63.6625 -45.4209 64.3412 -45.4209 65.1783Z" fill="#DCDBF4"/>
<path d="M-36.3263 65.1783C-36.3263 66.0154 -37.005 66.694 -37.8421 66.694C-38.6792 66.694 -39.3579 66.0154 -39.3579 65.1783C-39.3579 64.3411 -38.6792 63.6625 -37.8421 63.6625C-37.005 63.6625 -36.3263 64.3411 -36.3263 65.1783Z" fill="#DCDBF4"/>
<path d="M-27.2318 65.1782C-27.2318 66.0154 -27.9104 66.694 -28.7475 66.694C-29.5847 66.694 -30.2633 66.0154 -30.2633 65.1782C-30.2633 64.3411 -29.5847 63.6625 -28.7475 63.6625C-27.9104 63.6625 -27.2318 64.3411 -27.2318 65.1782Z" fill="#DCDBF4"/>
<path d="M-18.1369 65.1784C-18.1369 66.0155 -18.8155 66.6942 -19.6526 66.6942C-20.4898 66.6942 -21.1684 66.0155 -21.1684 65.1784C-21.1684 64.3413 -20.4898 63.6626 -19.6526 63.6626C-18.8155 63.6626 -18.1369 64.3413 -18.1369 65.1784Z" fill="#DCDBF4"/>
<path d="M-45.4209 74.2728C-45.4209 75.1099 -46.0995 75.7885 -46.9367 75.7885C-47.7738 75.7885 -48.4524 75.1099 -48.4524 74.2728C-48.4524 73.4356 -47.7738 72.757 -46.9367 72.757C-46.0995 72.757 -45.4209 73.4356 -45.4209 74.2728Z" fill="#DCDBF4"/>
<path d="M-36.3263 74.2727C-36.3263 75.1099 -37.005 75.7885 -37.8421 75.7885C-38.6792 75.7885 -39.3579 75.1099 -39.3579 74.2727C-39.3579 73.4356 -38.6792 72.757 -37.8421 72.757C-37.005 72.757 -36.3263 73.4356 -36.3263 74.2727Z" fill="#DCDBF4"/>
<path d="M-27.2315 74.2729C-27.2315 75.11 -27.9101 75.7887 -28.7472 75.7887C-29.5844 75.7887 -30.263 75.11 -30.263 74.2729C-30.263 73.4357 -29.5844 72.7571 -28.7472 72.7571C-27.9101 72.7571 -27.2315 73.4357 -27.2315 74.2729Z" fill="#DCDBF4"/>
<path d="M-18.1369 74.2729C-18.1369 75.11 -18.8155 75.7887 -19.6526 75.7887C-20.4898 75.7887 -21.1684 75.11 -21.1684 74.2729C-21.1684 73.4357 -20.4898 72.7571 -19.6526 72.7571C-18.8155 72.7571 -18.1369 73.4357 -18.1369 74.2729Z" fill="#DCDBF4"/>
<path d="M-45.4207 83.3676C-45.4207 84.2047 -46.0994 84.8833 -46.9365 84.8833C-47.7736 84.8833 -48.4523 84.2047 -48.4523 83.3676C-48.4523 82.5304 -47.7736 81.8518 -46.9365 81.8518C-46.0994 81.8518 -45.4207 82.5304 -45.4207 83.3676Z" fill="#DCDBF4"/>
<path d="M-36.3261 83.3676C-36.3261 84.2047 -37.0047 84.8833 -37.8418 84.8833C-38.679 84.8833 -39.3576 84.2047 -39.3576 83.3676C-39.3576 82.5304 -38.679 81.8518 -37.8418 81.8518C-37.0047 81.8518 -36.3261 82.5304 -36.3261 83.3676Z" fill="#DCDBF4"/>
<path d="M-27.2315 83.3676C-27.2315 84.2047 -27.9101 84.8834 -28.7473 84.8834C-29.5844 84.8834 -30.263 84.2047 -30.263 83.3676C-30.263 82.5305 -29.5844 81.8518 -28.7473 81.8518C-27.9101 81.8518 -27.2315 82.5305 -27.2315 83.3676Z" fill="#DCDBF4"/>
<path d="M-18.1369 83.3676C-18.1369 84.2047 -18.8155 84.8833 -19.6526 84.8833C-20.4898 84.8833 -21.1684 84.2047 -21.1684 83.3676C-21.1684 82.5304 -20.4898 81.8518 -19.6526 81.8518C-18.8155 81.8518 -18.1369 82.5304 -18.1369 83.3676Z" fill="#DCDBF4"/>
<path d="M-9.04263 46.989C-9.04263 47.8261 -9.72125 48.5047 -10.5584 48.5047C-11.3955 48.5047 -12.0742 47.8261 -12.0742 46.989C-12.0742 46.1518 -11.3955 45.4732 -10.5584 45.4732C-9.72125 45.4732 -9.04263 46.1518 -9.04263 46.989Z" fill="#DCDBF4"/>
<path d="M0.052063 46.989C0.052063 47.8261 -0.626572 48.5047 -1.46371 48.5047C-2.30086 48.5047 -2.97948 47.8261 -2.97948 46.989C-2.97948 46.1518 -2.30086 45.4732 -1.46371 45.4732C-0.626572 45.4732 0.052063 46.1518 0.052063 46.989Z" fill="#DCDBF4"/>
<path d="M9.14664 46.989C9.14664 47.8261 8.46802 48.5047 7.63087 48.5047C6.79373 48.5047 6.11511 47.8261 6.11511 46.989C6.11511 46.1518 6.79373 45.4732 7.63087 45.4732C8.46802 45.4732 9.14664 46.1518 9.14664 46.989Z" fill="#DCDBF4"/>
<path d="M18.2412 46.9889C18.2412 47.8261 17.5626 48.5047 16.7255 48.5047C15.8883 48.5047 15.2097 47.8261 15.2097 46.9889C15.2097 46.1518 15.8883 45.4732 16.7255 45.4732C17.5626 45.4732 18.2412 46.1518 18.2412 46.9889Z" fill="#DCDBF4"/>
<path d="M-9.0428 56.0834C-9.0428 56.9206 -9.72142 57.5992 -10.5586 57.5992C-11.3957 57.5992 -12.0743 56.9206 -12.0743 56.0834C-12.0743 55.2463 -11.3957 54.5676 -10.5586 54.5676C-9.72142 54.5676 -9.0428 55.2463 -9.0428 56.0834Z" fill="#DCDBF4"/>
<path d="M0.0517883 56.0834C0.0517883 56.9206 -0.626831 57.5992 -1.46397 57.5992C-2.30112 57.5992 -2.97975 56.9206 -2.97975 56.0834C-2.97975 55.2463 -2.30112 54.5676 -1.46397 54.5676C-0.626831 54.5676 0.0517883 55.2463 0.0517883 56.0834Z" fill="#DCDBF4"/>
<path d="M9.14639 56.0834C9.14639 56.9205 8.46776 57.5992 7.63062 57.5992C6.79347 57.5992 6.11485 56.9205 6.11485 56.0834C6.11485 55.2463 6.79347 54.5676 7.63062 54.5676C8.46776 54.5676 9.14639 55.2463 9.14639 56.0834Z" fill="#DCDBF4"/>
<path d="M18.241 56.0834C18.241 56.9205 17.5623 57.5992 16.7252 57.5992C15.8881 57.5992 15.2094 56.9205 15.2094 56.0834C15.2094 55.2463 15.8881 54.5676 16.7252 54.5676C17.5623 54.5676 18.241 55.2463 18.241 56.0834Z" fill="#DCDBF4"/>
<path d="M-9.04251 65.1783C-9.04251 66.0155 -9.72113 66.6941 -10.5583 66.6941C-11.3954 66.6941 -12.0741 66.0155 -12.0741 65.1783C-12.0741 64.3412 -11.3954 63.6626 -10.5583 63.6626C-9.72113 63.6626 -9.04251 64.3412 -9.04251 65.1783Z" fill="#DCDBF4"/>
<path d="M0.0520782 65.1782C0.0520782 66.0154 -0.626541 66.694 -1.46368 66.694C-2.30083 66.694 -2.97946 66.0154 -2.97946 65.1782C-2.97946 64.3411 -2.30083 63.6625 -1.46368 63.6625C-0.626541 63.6625 0.0520782 64.3411 0.0520782 65.1782Z" fill="#DCDBF4"/>
<path d="M9.14697 65.1784C9.14697 66.0155 8.46834 66.6941 7.6312 66.6941C6.79405 66.6941 6.11543 66.0155 6.11543 65.1784C6.11543 64.3412 6.79405 63.6626 7.6312 63.6626C8.46834 63.6626 9.14697 64.3412 9.14697 65.1784Z" fill="#DCDBF4"/>
<path d="M18.2416 65.1784C18.2416 66.0155 17.5629 66.6942 16.7258 66.6942C15.8886 66.6942 15.21 66.0155 15.21 65.1784C15.21 64.3412 15.8886 63.6626 16.7258 63.6626C17.5629 63.6626 18.2416 64.3412 18.2416 65.1784Z" fill="#DCDBF4"/>
<path d="M-9.04256 74.2728C-9.04256 75.1099 -9.72119 75.7886 -10.5583 75.7886C-11.3955 75.7886 -12.0741 75.1099 -12.0741 74.2728C-12.0741 73.4357 -11.3955 72.757 -10.5583 72.757C-9.72119 72.757 -9.04256 73.4357 -9.04256 74.2728Z" fill="#DCDBF4"/>
<path d="M0.052063 74.2727C0.052063 75.1099 -0.626556 75.7885 -1.4637 75.7885C-2.30084 75.7885 -2.97946 75.1099 -2.97946 74.2727C-2.97946 73.4356 -2.30084 72.757 -1.4637 72.757C-0.626556 72.757 0.052063 73.4356 0.052063 74.2727Z" fill="#DCDBF4"/>
<path d="M9.14667 74.2727C9.14667 75.1099 8.46805 75.7885 7.63091 75.7885C6.79376 75.7885 6.11513 75.1099 6.11513 74.2727C6.11513 73.4356 6.79376 72.757 7.63091 72.757C8.46805 72.757 9.14667 73.4356 9.14667 74.2727Z" fill="#DCDBF4"/>
<path d="M18.2413 74.2727C18.2413 75.1099 17.5626 75.7885 16.7255 75.7885C15.8883 75.7885 15.2097 75.1099 15.2097 74.2727C15.2097 73.4356 15.8883 72.757 16.7255 72.757C17.5626 72.757 18.2413 73.4356 18.2413 74.2727Z" fill="#DCDBF4"/>
<path d="M-9.04266 83.3674C-9.04266 84.2045 -9.7213 84.8832 -10.5584 84.8832C-11.3956 84.8832 -12.0742 84.2045 -12.0742 83.3674C-12.0742 82.5303 -11.3956 81.8516 -10.5584 81.8516C-9.7213 81.8516 -9.04266 82.5303 -9.04266 83.3674Z" fill="#DCDBF4"/>
<path d="M0.0519867 83.3674C0.0519867 84.2045 -0.626633 84.8832 -1.46378 84.8832C-2.30092 84.8832 -2.97955 84.2045 -2.97955 83.3674C-2.97955 82.5303 -2.30092 81.8516 -1.46378 81.8516C-0.626633 81.8516 0.0519867 82.5303 0.0519867 83.3674Z" fill="#DCDBF4"/>
<path d="M9.14658 83.3674C9.14658 84.2045 8.46796 84.8831 7.63081 84.8831C6.79367 84.8831 6.11504 84.2045 6.11504 83.3674C6.11504 82.5302 6.79367 81.8516 7.63081 81.8516C8.46796 81.8516 9.14658 82.5302 9.14658 83.3674Z" fill="#DCDBF4"/>
<path d="M18.2412 83.3674C18.2412 84.2045 17.5625 84.8831 16.7254 84.8831C15.8883 84.8831 15.2096 84.2045 15.2096 83.3674C15.2096 82.5303 15.8883 81.8516 16.7254 81.8516C17.5625 81.8516 18.2412 82.5303 18.2412 83.3674Z" fill="#DCDBF4"/>
<path d="M27.3359 46.989C27.3359 47.8261 26.6572 48.5048 25.8201 48.5048C24.983 48.5048 24.3043 47.8261 24.3043 46.989C24.3043 46.1518 24.983 45.4732 25.8201 45.4732C26.6572 45.4732 27.3359 46.1518 27.3359 46.989Z" fill="#DCDBF4"/>
<path d="M36.4306 46.989C36.4306 47.8261 35.7519 48.5048 34.9148 48.5048C34.0776 48.5048 33.399 47.8261 33.399 46.989C33.399 46.1519 34.0776 45.4732 34.9148 45.4732C35.7519 45.4732 36.4306 46.1519 36.4306 46.989Z" fill="#DCDBF4"/>
<path d="M45.5251 46.989C45.5251 47.8261 44.8465 48.5048 44.0094 48.5048C43.1722 48.5048 42.4936 47.8261 42.4936 46.989C42.4936 46.1519 43.1722 45.4732 44.0094 45.4732C44.8465 45.4732 45.5251 46.1519 45.5251 46.989Z" fill="#DCDBF4"/>
<path d="M54.6198 46.989C54.6198 47.8261 53.9411 48.5047 53.104 48.5047C52.2668 48.5047 51.5882 47.8261 51.5882 46.989C51.5882 46.1518 52.2668 45.4732 53.104 45.4732C53.9411 45.4732 54.6198 46.1518 54.6198 46.989Z" fill="#DCDBF4"/>
<path d="M27.3359 56.0836C27.3359 56.9207 26.6573 57.5993 25.8201 57.5993C24.983 57.5993 24.3044 56.9207 24.3044 56.0836C24.3044 55.2464 24.983 54.5678 25.8201 54.5678C26.6573 54.5678 27.3359 55.2464 27.3359 56.0836Z" fill="#DCDBF4"/>
<path d="M36.4305 56.0835C36.4305 56.9207 35.7519 57.5993 34.9147 57.5993C34.0776 57.5993 33.399 56.9207 33.399 56.0835C33.399 55.2464 34.0776 54.5678 34.9147 54.5678C35.7519 54.5678 36.4305 55.2464 36.4305 56.0835Z" fill="#DCDBF4"/>
<path d="M45.5251 56.0835C45.5251 56.9207 44.8465 57.5993 44.0093 57.5993C43.1722 57.5993 42.4936 56.9207 42.4936 56.0835C42.4936 55.2464 43.1722 54.5678 44.0093 54.5678C44.8465 54.5678 45.5251 55.2464 45.5251 56.0835Z" fill="#DCDBF4"/>
<path d="M54.62 56.0837C54.62 56.9208 53.9414 57.5994 53.1042 57.5994C52.2671 57.5994 51.5885 56.9208 51.5885 56.0837C51.5885 55.2465 52.2671 54.5679 53.1042 54.5679C53.9414 54.5679 54.62 55.2465 54.62 56.0837Z" fill="#DCDBF4"/>
<path d="M27.336 65.1783C27.336 66.0155 26.6573 66.6941 25.8202 66.6941C24.983 66.6941 24.3044 66.0155 24.3044 65.1783C24.3044 64.3412 24.983 63.6626 25.8202 63.6626C26.6573 63.6626 27.336 64.3412 27.336 65.1783Z" fill="#DCDBF4"/>
<path d="M36.4306 65.1783C36.4306 66.0154 35.752 66.694 34.9148 66.694C34.0777 66.694 33.399 66.0154 33.399 65.1783C33.399 64.3411 34.0777 63.6625 34.9148 63.6625C35.752 63.6625 36.4306 64.3411 36.4306 65.1783Z" fill="#DCDBF4"/>
<path d="M45.5252 65.1783C45.5252 66.0154 44.8465 66.694 44.0094 66.694C43.1723 66.694 42.4936 66.0154 42.4936 65.1783C42.4936 64.3411 43.1723 63.6625 44.0094 63.6625C44.8465 63.6625 45.5252 64.3411 45.5252 65.1783Z" fill="#DCDBF4"/>
<path d="M54.6198 65.1783C54.6198 66.0154 53.9411 66.694 53.104 66.694C52.2669 66.694 51.5882 66.0154 51.5882 65.1783C51.5882 64.3411 52.2669 63.6625 53.104 63.6625C53.9411 63.6625 54.6198 64.3411 54.6198 65.1783Z" fill="#DCDBF4"/>
<path d="M27.336 74.2728C27.336 75.1099 26.6574 75.7886 25.8203 75.7886C24.9831 75.7886 24.3045 75.1099 24.3045 74.2728C24.3045 73.4357 24.9831 72.757 25.8203 72.757C26.6574 72.757 27.336 73.4357 27.336 74.2728Z" fill="#DCDBF4"/>
<path d="M36.4306 74.2728C36.4306 75.1099 35.752 75.7885 34.9148 75.7885C34.0777 75.7885 33.399 75.1099 33.399 74.2728C33.399 73.4356 34.0777 72.757 34.9148 72.757C35.752 72.757 36.4306 73.4356 36.4306 74.2728Z" fill="#DCDBF4"/>
<path d="M45.5252 74.2728C45.5252 75.1099 44.8465 75.7885 44.0094 75.7885C43.1723 75.7885 42.4936 75.1099 42.4936 74.2728C42.4936 73.4356 43.1723 72.757 44.0094 72.757C44.8465 72.757 45.5252 73.4356 45.5252 74.2728Z" fill="#DCDBF4"/>
<path d="M54.6198 74.2727C54.6198 75.1099 53.9411 75.7885 53.104 75.7885C52.2669 75.7885 51.5882 75.1099 51.5882 74.2727C51.5882 73.4356 52.2669 72.757 53.104 72.757C53.9411 72.757 54.6198 73.4356 54.6198 74.2727Z" fill="#DCDBF4"/>
<path d="M27.3359 83.3674C27.3359 84.2046 26.6573 84.8832 25.8202 84.8832C24.983 84.8832 24.3044 84.2046 24.3044 83.3674C24.3044 82.5303 24.983 81.8517 25.8202 81.8517C26.6573 81.8517 27.3359 82.5303 27.3359 83.3674Z" fill="#DCDBF4"/>
<path d="M36.4308 83.3676C36.4308 84.2047 35.7522 84.8834 34.915 84.8834C34.0779 84.8834 33.3992 84.2047 33.3992 83.3676C33.3992 82.5304 34.0779 81.8518 34.915 81.8518C35.7522 81.8518 36.4308 82.5304 36.4308 83.3676Z" fill="#DCDBF4"/>
<path d="M45.5254 83.3676C45.5254 84.2047 44.8467 84.8833 44.0096 84.8833C43.1725 84.8833 42.4938 84.2047 42.4938 83.3676C42.4938 82.5304 43.1725 81.8518 44.0096 81.8518C44.8467 81.8518 45.5254 82.5304 45.5254 83.3676Z" fill="#DCDBF4"/>
<path d="M54.62 83.3676C54.62 84.2047 53.9413 84.8833 53.1042 84.8833C52.2671 84.8833 51.5884 84.2047 51.5884 83.3676C51.5884 82.5304 52.2671 81.8518 53.1042 81.8518C53.9413 81.8518 54.62 82.5304 54.62 83.3676Z" fill="#DCDBF4"/>
<path d="M-9.04243 1.51604C-9.04243 2.35318 -9.72105 3.03181 -10.5582 3.03181C-11.3953 3.03181 -12.074 2.35318 -12.074 1.51604C-12.074 0.678906 -11.3953 0.00027338 -10.5582 0.00027338C-9.72105 0.00027338 -9.04243 0.678906 -9.04243 1.51604Z" fill="#DCDBF4"/>
<path d="M0.0521393 1.51601C0.0521393 2.35314 -0.62648 3.03177 -1.46362 3.03177C-2.30077 3.03177 -2.9794 2.35314 -2.9794 1.51601C-2.9794 0.67887 -2.30077 0.000237775 -1.46362 0.000237775C-0.62648 0.000237775 0.0521393 0.67887 0.0521393 1.51601Z" fill="#DCDBF4"/>
<path d="M9.14674 1.51598C9.14674 2.35311 8.46812 3.03175 7.63098 3.03175C6.79384 3.03175 6.1152 2.35311 6.1152 1.51598C6.1152 0.678843 6.79384 0.000210655 7.63098 0.000210655C8.46812 0.000210655 9.14674 0.678843 9.14674 1.51598Z" fill="#DCDBF4"/>
<path d="M18.2413 1.51599C18.2413 2.35312 17.5627 3.03176 16.7256 3.03176C15.8884 3.03176 15.2098 2.35312 15.2098 1.51599C15.2098 0.678851 15.8884 0.00021884 16.7256 0.00021884C17.5627 0.00021884 18.2413 0.678851 18.2413 1.51599Z" fill="#DCDBF4"/>
<path d="M-9.04251 10.6105C-9.04251 11.4477 -9.72115 12.1263 -10.5583 12.1263C-11.3954 12.1263 -12.0741 11.4477 -12.0741 10.6105C-12.0741 9.7734 -11.3954 9.09477 -10.5583 9.09477C-9.72115 9.09477 -9.04251 9.7734 -9.04251 10.6105Z" fill="#DCDBF4"/>
<path d="M0.0523987 10.6107C0.0523987 11.4478 -0.626236 12.1265 -1.46338 12.1265C-2.30052 12.1265 -2.97914 11.4478 -2.97914 10.6107C-2.97914 9.77356 -2.30052 9.09492 -1.46338 9.09492C-0.626236 9.09492 0.0523987 9.77356 0.0523987 10.6107Z" fill="#DCDBF4"/>
<path d="M9.14699 10.6107C9.14699 11.4478 8.46837 12.1264 7.63123 12.1264C6.79408 12.1264 6.11546 11.4478 6.11546 10.6107C6.11546 9.77354 6.79408 9.0949 7.63123 9.0949C8.46837 9.0949 9.14699 9.77354 9.14699 10.6107Z" fill="#DCDBF4"/>
<path d="M18.2413 10.6105C18.2413 11.4476 17.5627 12.1263 16.7255 12.1263C15.8884 12.1263 15.2098 11.4476 15.2098 10.6105C15.2098 9.77337 15.8884 9.09474 16.7255 9.09474C17.5627 9.09474 18.2413 9.77337 18.2413 10.6105Z" fill="#DCDBF4"/>
<path d="M-9.0424 19.7053C-9.0424 20.5424 -9.72102 21.2211 -10.5582 21.2211C-11.3953 21.2211 -12.0739 20.5424 -12.0739 19.7053C-12.0739 18.8682 -11.3953 18.1895 -10.5582 18.1895C-9.72102 18.1895 -9.0424 18.8682 -9.0424 19.7053Z" fill="#DCDBF4"/>
<path d="M0.0521698 19.7053C0.0521698 20.5424 -0.62645 21.221 -1.46359 21.221C-2.30074 21.221 -2.97937 20.5424 -2.97937 19.7053C-2.97937 18.8681 -2.30074 18.1895 -1.46359 18.1895C-0.62645 18.1895 0.0521698 18.8681 0.0521698 19.7053Z" fill="#DCDBF4"/>
<path d="M9.14677 19.7052C9.14677 20.5424 8.46815 21.221 7.63101 21.221C6.79387 21.221 6.11523 20.5424 6.11523 19.7052C6.11523 18.8681 6.79387 18.1895 7.63101 18.1895C8.46815 18.1895 9.14677 18.8681 9.14677 19.7052Z" fill="#DCDBF4"/>
<path d="M18.2414 19.7052C18.2414 20.5424 17.5627 21.221 16.7256 21.221C15.8884 21.221 15.2098 20.5424 15.2098 19.7052C15.2098 18.8681 15.8884 18.1895 16.7256 18.1895C17.5627 18.1895 18.2414 18.8681 18.2414 19.7052Z" fill="#DCDBF4"/>
<path d="M-9.0425 28.7999C-9.0425 29.637 -9.72112 30.3157 -10.5583 30.3157C-11.3954 30.3157 -12.074 29.637 -12.074 28.7999C-12.074 27.9628 -11.3954 27.2841 -10.5583 27.2841C-9.72112 27.2841 -9.0425 27.9628 -9.0425 28.7999Z" fill="#DCDBF4"/>
<path d="M0.0521088 28.7999C0.0521088 29.637 -0.626511 30.3156 -1.46365 30.3156C-2.3008 30.3156 -2.97943 29.637 -2.97943 28.7999C-2.97943 27.9627 -2.3008 27.2841 -1.46365 27.2841C-0.626511 27.2841 0.0521088 27.9627 0.0521088 28.7999Z" fill="#DCDBF4"/>
<path d="M9.14671 28.7998C9.14671 29.637 8.46808 30.3156 7.63094 30.3156C6.79379 30.3156 6.11517 29.637 6.11517 28.7998C6.11517 27.9627 6.79379 27.2841 7.63094 27.2841C8.46808 27.2841 9.14671 27.9627 9.14671 28.7998Z" fill="#DCDBF4"/>
<path d="M18.2413 28.7998C18.2413 29.637 17.5627 30.3156 16.7255 30.3156C15.8884 30.3156 15.2098 29.637 15.2098 28.7998C15.2098 27.9627 15.8884 27.2841 16.7255 27.2841C17.5627 27.2841 18.2413 27.9627 18.2413 28.7998Z" fill="#DCDBF4"/>
<path d="M-9.04262 37.8945C-9.04262 38.7317 -9.72124 39.4103 -10.5584 39.4103C-11.3955 39.4103 -12.0742 38.7317 -12.0742 37.8945C-12.0742 37.0574 -11.3955 36.3788 -10.5584 36.3788C-9.72124 36.3788 -9.04262 37.0574 -9.04262 37.8945Z" fill="#DCDBF4"/>
<path d="M0.0520325 37.8945C0.0520325 38.7316 -0.626587 39.4103 -1.46373 39.4103C-2.30087 39.4103 -2.97951 38.7316 -2.97951 37.8945C-2.97951 37.0574 -2.30087 36.3787 -1.46373 36.3787C-0.626587 36.3787 0.0520325 37.0574 0.0520325 37.8945Z" fill="#DCDBF4"/>
<path d="M9.14662 37.8945C9.14662 38.7316 8.468 39.4102 7.63086 39.4102C6.79372 39.4102 6.1151 38.7316 6.1151 37.8945C6.1151 37.0573 6.79372 36.3787 7.63086 36.3787C8.468 36.3787 9.14662 37.0573 9.14662 37.8945Z" fill="#DCDBF4"/>
<path d="M18.2412 37.8945C18.2412 38.7316 17.5626 39.4102 16.7254 39.4102C15.8883 39.4102 15.2097 38.7316 15.2097 37.8945C15.2097 37.0573 15.8883 36.3787 16.7254 36.3787C17.5626 36.3787 18.2412 37.0573 18.2412 37.8945Z" fill="#DCDBF4"/>
<path d="M27.3357 1.51582C27.3357 2.35296 26.6571 3.03159 25.8199 3.03159C24.9828 3.03159 24.3042 2.35296 24.3042 1.51582C24.3042 0.678685 24.9828 5.22035e-05 25.8199 5.22035e-05C26.6571 5.22035e-05 27.3357 0.678685 27.3357 1.51582Z" fill="#DCDBF4"/>
<path d="M36.4302 1.51577C36.4302 2.35291 35.7516 3.03154 34.9144 3.03154C34.0773 3.03154 33.3987 2.35291 33.3987 1.51577C33.3987 0.678636 34.0773 3.2035e-06 34.9144 3.2035e-06C35.7516 3.2035e-06 36.4302 0.678636 36.4302 1.51577Z" fill="#DCDBF4"/>
<path d="M45.5248 1.51577C45.5248 2.3529 44.8462 3.03154 44.009 3.03154C43.1719 3.03154 42.4933 2.3529 42.4933 1.51577C42.4933 0.678633 43.1719 0 44.009 0C44.8462 0 45.5248 0.678633 45.5248 1.51577Z" fill="#DCDBF4"/>
<path d="M54.6194 1.51578C54.6194 2.35291 53.9408 3.03154 53.1036 3.03154C52.2665 3.03154 51.5878 2.35291 51.5878 1.51578C51.5878 0.678641 52.2665 8.18496e-06 53.1036 8.18496e-06C53.9408 8.18496e-06 54.6194 0.678641 54.6194 1.51578Z" fill="#DCDBF4"/>
<path d="M27.3356 10.6104C27.3356 11.4475 26.657 12.1261 25.8199 12.1261C24.9827 12.1261 24.3041 11.4475 24.3041 10.6104C24.3041 9.77324 24.9827 9.09461 25.8199 9.09461C26.657 9.09461 27.3356 9.77324 27.3356 10.6104Z" fill="#DCDBF4"/>
<path d="M36.4302 10.6103C36.4302 11.4475 35.7515 12.1261 34.9144 12.1261C34.0773 12.1261 33.3986 11.4475 33.3986 10.6103C33.3986 9.7732 34.0773 9.09457 34.9144 9.09457C35.7515 9.09457 36.4302 9.7732 36.4302 10.6103Z" fill="#DCDBF4"/>
<path d="M45.5248 10.6103C45.5248 11.4474 44.8461 12.1261 44.009 12.1261C43.1719 12.1261 42.4932 11.4474 42.4932 10.6103C42.4932 9.77316 43.1719 9.09453 44.009 9.09453C44.8461 9.09453 45.5248 9.77316 45.5248 10.6103Z" fill="#DCDBF4"/>
<path d="M54.6194 10.6103C54.6194 11.4474 53.9407 12.1261 53.1036 12.1261C52.2664 12.1261 51.5878 11.4474 51.5878 10.6103C51.5878 9.77317 52.2664 9.09454 53.1036 9.09454C53.9407 9.09454 54.6194 9.77317 54.6194 10.6103Z" fill="#DCDBF4"/>
<path d="M27.3358 19.7052C27.3358 20.5423 26.6572 21.2209 25.82 21.2209C24.9829 21.2209 24.3043 20.5423 24.3043 19.7052C24.3043 18.868 24.9829 18.1894 25.82 18.1894C26.6572 18.1894 27.3358 18.868 27.3358 19.7052Z" fill="#DCDBF4"/>
<path d="M36.4305 19.7051C36.4305 20.5423 35.7518 21.2209 34.9147 21.2209C34.0775 21.2209 33.3989 20.5423 33.3989 19.7051C33.3989 18.868 34.0775 18.1894 34.9147 18.1894C35.7518 18.1894 36.4305 18.868 36.4305 19.7051Z" fill="#DCDBF4"/>
<path d="M45.525 19.7051C45.525 20.5423 44.8464 21.2209 44.0093 21.2209C43.1721 21.2209 42.4935 20.5423 42.4935 19.7051C42.4935 18.868 43.1721 18.1894 44.0093 18.1894C44.8464 18.1894 45.525 18.868 45.525 19.7051Z" fill="#DCDBF4"/>
<path d="M54.6199 19.7053C54.6199 20.5424 53.9413 21.221 53.1042 21.221C52.267 21.221 51.5884 20.5424 51.5884 19.7053C51.5884 18.8681 52.267 18.1895 53.1042 18.1895C53.9413 18.1895 54.6199 18.8681 54.6199 19.7053Z" fill="#DCDBF4"/>
<path d="M27.3357 28.7997C27.3357 29.6369 26.6571 30.3155 25.82 30.3155C24.9828 30.3155 24.3042 29.6369 24.3042 28.7997C24.3042 27.9626 24.9828 27.284 25.82 27.284C26.6571 27.284 27.3357 27.9626 27.3357 28.7997Z" fill="#DCDBF4"/>
<path d="M36.4304 28.7997C36.4304 29.6369 35.7518 30.3155 34.9146 30.3155C34.0775 30.3155 33.3989 29.6369 33.3989 28.7997C33.3989 27.9626 34.0775 27.284 34.9146 27.284C35.7518 27.284 36.4304 27.9626 36.4304 28.7997Z" fill="#DCDBF4"/>
<path d="M45.525 28.7997C45.525 29.6369 44.8464 30.3155 44.0092 30.3155C43.1721 30.3155 42.4935 29.6369 42.4935 28.7997C42.4935 27.9626 43.1721 27.284 44.0092 27.284C44.8464 27.284 45.525 27.9626 45.525 28.7997Z" fill="#DCDBF4"/>
<path d="M54.6196 28.7997C54.6196 29.6369 53.941 30.3155 53.1038 30.3155C52.2667 30.3155 51.588 29.6369 51.588 28.7997C51.588 27.9626 52.2667 27.284 53.1038 27.284C53.941 27.284 54.6196 27.9626 54.6196 28.7997Z" fill="#DCDBF4"/>
<path d="M27.3359 37.8945C27.3359 38.7316 26.6573 39.4103 25.8201 39.4103C24.983 39.4103 24.3044 38.7316 24.3044 37.8945C24.3044 37.0574 24.983 36.3787 25.8201 36.3787C26.6573 36.3787 27.3359 37.0574 27.3359 37.8945Z" fill="#DCDBF4"/>
<path d="M36.4305 37.8945C36.4305 38.7316 35.7518 39.4102 34.9147 39.4102C34.0775 39.4102 33.3989 38.7316 33.3989 37.8945C33.3989 37.0573 34.0775 36.3787 34.9147 36.3787C35.7518 36.3787 36.4305 37.0573 36.4305 37.8945Z" fill="#DCDBF4"/>
<path d="M45.525 37.8945C45.525 38.7316 44.8464 39.4102 44.0093 39.4102C43.1721 39.4102 42.4935 38.7316 42.4935 37.8945C42.4935 37.0573 43.1721 36.3787 44.0093 36.3787C44.8464 36.3787 45.525 37.0573 45.525 37.8945Z" fill="#DCDBF4"/>
<path d="M54.6196 37.8945C54.6196 38.7316 53.941 39.4102 53.1039 39.4102C52.2667 39.4102 51.5881 38.7316 51.5881 37.8945C51.5881 37.0573 52.2667 36.3787 53.1039 36.3787C53.941 36.3787 54.6196 37.0573 54.6196 37.8945Z" fill="#DCDBF4"/>
</svg>
