<svg width="42" height="42" viewBox="0 0 42 42" fill="none" xmlns="http://www.w3.org/2000/svg">
<path d="M21 4.19116C17.6213 4.19116 14.3184 5.19308 11.5091 7.07022C8.69972 8.94736 6.51011 11.6154 5.21711 14.737C3.92411 17.8586 3.5858 21.2934 4.24497 24.6073C4.90413 27.9211 6.53116 30.9651 8.92031 33.3542C11.3095 35.7434 14.3534 37.3704 17.6673 38.0296C20.9811 38.6887 24.416 38.3504 27.5376 37.0574C30.6591 35.7644 33.3272 33.5748 35.2043 30.7655C37.0814 27.9561 38.0834 24.6533 38.0834 21.2745C38.0834 19.0311 37.6415 16.8096 36.783 14.737C35.9245 12.6643 34.6661 10.7811 33.0798 9.19475C31.4934 7.60842 29.6102 6.35007 27.5376 5.49155C25.4649 4.63304 23.2435 4.19116 21 4.19116V4.19116ZM21 34.9412C18.297 34.9412 15.6547 34.1396 13.4073 32.6379C11.1598 31.1362 9.40809 29.0018 8.3737 26.5045C7.3393 24.0072 7.06865 21.2593 7.59598 18.6083C8.12332 15.9572 9.42494 13.522 11.3363 11.6107C13.2476 9.69938 15.6827 8.39776 18.3338 7.87043C20.9849 7.3431 23.7328 7.61374 26.23 8.64814C28.7273 9.68254 30.8617 11.4342 32.3635 13.6817C33.8652 15.9292 34.6667 18.5715 34.6667 21.2745C34.6667 24.8991 33.2268 28.3753 30.6638 30.9383C28.1008 33.5013 24.6247 34.9412 21 34.9412V34.9412Z" fill="#FEE53E"/>
<path d="M27.8335 19.5648H22.7085V14.4398C22.7085 13.9867 22.5285 13.5522 22.2081 13.2318C21.8878 12.9114 21.4532 12.7314 21.0002 12.7314C20.5471 12.7314 20.1126 12.9114 19.7922 13.2318C19.4718 13.5522 19.2918 13.9867 19.2918 14.4398V21.2731C19.2918 21.7262 19.4718 22.1607 19.7922 22.4811C20.1126 22.8015 20.5471 22.9814 21.0002 22.9814H27.8335C28.2866 22.9814 28.7211 22.8015 29.0415 22.4811C29.3618 22.1607 29.5418 21.7262 29.5418 21.2731C29.5418 20.82 29.3618 20.3855 29.0415 20.0651C28.7211 19.7448 28.2866 19.5648 27.8335 19.5648Z" fill="#FEE53E"/>
</svg>
