<svg width="34" height="36" viewBox="0 0 34 36" fill="none" xmlns="http://www.w3.org/2000/svg">
<g clip-path="url(#clip0_817_4557)">
<path d="M24.375 19.5238L33.625 22.0863H26.5625L16.875 19.5238H24.375Z" fill="#C7B000"/>
<path d="M3.125 9.5238H16.875V33.2738H3.125V9.5238Z" fill="#514AC6"/>
<path d="M16.875 9.5238H24.375V19.5238H16.875V9.5238Z" fill="#2E158F"/>
<path d="M13.125 0.773804L0.6875 9.5238H16.875L13.125 0.773804Z" fill="#FECE00"/>
<path d="M18.125 2.0238H20V7.0238H18.125V2.0238Z" fill="#D0D0D0"/>
<path d="M20 2.0238H21.25V7.6488H20V2.0238Z" fill="#94989B"/>
<path d="M13.125 0.773804L26.875 9.5238H16.875L13.125 0.773804Z" fill="#C7B000"/>
<path d="M17.5 0.773804H20.625V2.0238H17.5V0.773804Z" fill="#D0D0D0"/>
<path d="M20.625 0.773804H21.875V2.0238H20.625V0.773804Z" fill="#94989B"/>
<path d="M8 13.1488H12V17.1488H8V13.1488Z" fill="#D6EEF0"/>
<path d="M7.5 12.6488V17.6488H12.5V12.6488H7.5ZM12 13.1488V14.8988H10.25V13.1488H12ZM9.75 13.1488V14.8988H8V13.1488H9.75V13.1488ZM8 17.1488V15.3988H9.75V17.1488H8ZM10.25 17.1488V15.3988H12V17.1488H10.25Z" fill="#89664C"/>
<path d="M19.125 12.8988H22.125V17.3988H19.125V12.8988Z" fill="#D6EEF0"/>
<path d="M18.875 12.6488V17.6488H22.375V12.6488H18.875V12.6488ZM19.375 13.1488H20.375V14.8988H19.375V13.1488V13.1488ZM19.375 17.1488V15.3988H20.375V17.1488H19.375ZM21.875 17.1488H20.875V15.3988H21.875V17.1488ZM21.875 14.8988H20.875V13.1488H21.875V14.8988ZM8.5625 26.4613H12.4375V33.2738H8.5625V26.4613ZM12 25.4613H13V26.4613H12V25.4613Z" fill="#89664C"/>
<path d="M7.5625 26.4613H8.5625V33.2738H7.5625V26.4613Z" fill="#594640"/>
<path d="M7.125 25.4613H12V26.4613H7.125V25.4613Z" fill="#DBB471"/>
<path d="M11.625 29.7738C11.8321 29.7738 12 29.6059 12 29.3988C12 29.1917 11.8321 29.0238 11.625 29.0238C11.4179 29.0238 11.25 29.1917 11.25 29.3988C11.25 29.6059 11.4179 29.7738 11.625 29.7738Z" fill="#F9F3D9"/>
<path d="M0.0625 33.2738H32.5625V35.7738H0.0625V33.2738Z" fill="#3B2CA3"/>
<path d="M24.9375 22.0863H30.75V33.2738H24.9375V22.0863Z" fill="#2E158F"/>
<path d="M16.875 22.0863H24.9375V33.2738H16.875V22.0863Z" fill="#514AC6"/>
<path d="M16.875 19.5238H3.125L0 22.0863H26.5625L16.875 19.5238Z" fill="#FECE00"/>
<path d="M17.6875 25.6488H21.6875V29.6488H17.6875V25.6488Z" fill="#D6EEF0"/>
<path d="M17.1875 25.1488V30.1488H22.1875V25.1488H17.1875ZM21.6875 25.6488V27.3988H19.9375V25.6488H21.6875ZM19.4375 25.6488V27.3988H17.6875V25.6488H19.4375ZM17.6875 29.6488V27.8988H19.4375V29.6488H17.6875ZM19.9375 29.6488V27.8988H21.6875V29.6488H19.9375Z" fill="#89664C"/>
<path d="M26.3125 25.3988H29.3125V29.8988H26.3125V25.3988Z" fill="#D6EEF0"/>
<path d="M26.0625 25.1488V30.1488H29.5625V25.1488H26.0625ZM26.5625 25.6488H27.5625V27.3988H26.5625V25.6488ZM26.5625 29.6488V27.8988H27.5625V29.6488H26.5625ZM29.0625 29.6488H28.0625V27.8988H29.0625V29.6488ZM29.0625 27.3988H28.0625V25.6488H29.0625V27.3988Z" fill="#89664C"/>
</g>
<defs>
<clipPath id="clip0_817_4557">
<rect width="34" height="35" fill="white" transform="translate(0 0.773804)"/>
</clipPath>
</defs>
</svg>
