<svg width="34" height="36" viewBox="0 0 34 36" fill="none" xmlns="http://www.w3.org/2000/svg">
<g clip-path="url(#clip0_798_2795)">
<path d="M24.375 19.6998L33.625 22.2623H26.5625L16.875 19.6998H24.375Z" fill="#2E158F"/>
<path d="M3.125 9.69983H16.875V33.4498H3.125V9.69983Z" fill="#6DFFE7"/>
<path d="M16.875 9.69983H24.375V19.6998H16.875V9.69983Z" fill="#00B585"/>
<path d="M13.125 0.949829L0.6875 9.69983H16.875L13.125 0.949829Z" fill="#4237AF"/>
<path d="M18.125 2.19983H20V7.19983H18.125V2.19983Z" fill="#D0D0D0"/>
<path d="M20 2.19983H21.25V7.82483H20V2.19983Z" fill="#94989B"/>
<path d="M13.125 0.949829L26.875 9.69983H16.875L13.125 0.949829Z" fill="#2E158F"/>
<path d="M17.5 0.949829H20.625V2.19983H17.5V0.949829Z" fill="#D0D0D0"/>
<path d="M20.625 0.949829H21.875V2.19983H20.625V0.949829Z" fill="#94989B"/>
<path d="M8 13.3248H12V17.3248H8V13.3248Z" fill="#D6EEF0"/>
<path d="M7.5 12.8248V17.8248H12.5V12.8248H7.5ZM12 13.3248V15.0748H10.25V13.3248H12ZM9.75 13.3248V15.0748H8V13.3248H9.75ZM8 17.3248V15.5748H9.75V17.3248H8ZM10.25 17.3248V15.5748H12V17.3248H10.25Z" fill="#89664C"/>
<path d="M19.125 13.0748H22.125V17.5748H19.125V13.0748Z" fill="#D6EEF0"/>
<path d="M18.875 12.8248V17.8248H22.375V12.8248H18.875ZM19.375 13.3248H20.375V15.0748H19.375V13.3248ZM19.375 17.3248V15.5748H20.375V17.3248H19.375ZM21.875 17.3248H20.875V15.5748H21.875V17.3248ZM21.875 15.0748H20.875V13.3248H21.875V15.0748ZM8.5625 26.6373H12.4375V33.4498H8.5625V26.6373ZM12 25.6373H13V26.6373H12V25.6373Z" fill="#89664C"/>
<path d="M7.5625 26.6373H8.5625V33.4498H7.5625V26.6373Z" fill="#594640"/>
<path d="M7.125 25.6373H12V26.6373H7.125V25.6373Z" fill="#DBB471"/>
<path d="M11.625 29.9498C11.8321 29.9498 12 29.7819 12 29.5748C12 29.3677 11.8321 29.1998 11.625 29.1998C11.4179 29.1998 11.25 29.3677 11.25 29.5748C11.25 29.7819 11.4179 29.9498 11.625 29.9498Z" fill="#F9F3D9"/>
<path d="M0.0625 33.4498H32.5625V35.9498H0.0625V33.4498Z" fill="#4237AF"/>
<path d="M24.9375 22.2623H30.75V33.4498H24.9375V22.2623Z" fill="#00B585"/>
<path d="M16.875 22.2623H24.9375V33.4498H16.875V22.2623Z" fill="#6DFFE7"/>
<path d="M16.875 19.6998H3.125L0 22.2623H26.5625L16.875 19.6998Z" fill="#4237AF"/>
<path d="M17.6875 25.8248H21.6875V29.8248H17.6875V25.8248Z" fill="#D6EEF0"/>
<path d="M17.1875 25.3248V30.3248H22.1875V25.3248H17.1875ZM21.6875 25.8248V27.5748H19.9375V25.8248H21.6875ZM19.4375 25.8248V27.5748H17.6875V25.8248H19.4375ZM17.6875 29.8248V28.0748H19.4375V29.8248H17.6875ZM19.9375 29.8248V28.0748H21.6875V29.8248H19.9375Z" fill="#89664C"/>
<path d="M26.3125 25.5748H29.3125V30.0748H26.3125V25.5748Z" fill="#D6EEF0"/>
<path d="M26.0625 25.3248V30.3248H29.5625V25.3248H26.0625ZM26.5625 25.8248H27.5625V27.5748H26.5625V25.8248ZM26.5625 29.8248V28.0748H27.5625V29.8248H26.5625ZM29.0625 29.8248H28.0625V28.0748H29.0625V29.8248ZM29.0625 27.5748H28.0625V25.8248H29.0625V27.5748Z" fill="#89664C"/>
</g>
<defs>
<clipPath id="clip0_798_2795">
<rect width="34" height="35" fill="white" transform="translate(0 0.949829)"/>
</clipPath>
</defs>
</svg>
