<svg width="34" height="36" viewBox="0 0 34 36" fill="none" xmlns="http://www.w3.org/2000/svg">
<g clip-path="url(#clip0_817_4503)">
<path d="M24.375 19.6904L33.625 22.2529H26.5625L16.875 19.6904H24.375Z" fill="#2E158F"/>
<path d="M3.125 9.69043H16.875V33.4404H3.125V9.69043Z" fill="#FFEA64"/>
<path d="M16.875 9.69043H24.375V19.6904H16.875V9.69043Z" fill="#C7B000"/>
<path d="M13.125 0.94043L0.6875 9.69043H16.875L13.125 0.94043Z" fill="#4237AF"/>
<path d="M18.125 2.19043H20V7.19043H18.125V2.19043Z" fill="#D0D0D0"/>
<path d="M20 2.19043H21.25V7.81543H20V2.19043Z" fill="#94989B"/>
<path d="M13.125 0.94043L26.875 9.69043H16.875L13.125 0.94043Z" fill="#2E158F"/>
<path d="M17.5 0.94043H20.625V2.19043H17.5V0.94043Z" fill="#D0D0D0"/>
<path d="M20.625 0.94043H21.875V2.19043H20.625V0.94043Z" fill="#94989B"/>
<path d="M8 13.3154H12V17.3154H8V13.3154Z" fill="#D6EEF0"/>
<path d="M7.5 12.8154V17.8154H12.5V12.8154H7.5ZM12 13.3154V15.0654H10.25V13.3154H12ZM9.75 13.3154V15.0654H8V13.3154H9.75V13.3154ZM8 17.3154V15.5654H9.75V17.3154H8ZM10.25 17.3154V15.5654H12V17.3154H10.25Z" fill="#89664C"/>
<path d="M19.125 13.0654H22.125V17.5654H19.125V13.0654Z" fill="#D6EEF0"/>
<path d="M18.875 12.8154V17.8154H22.375V12.8154H18.875V12.8154ZM19.375 13.3154H20.375V15.0654H19.375V13.3154V13.3154ZM19.375 17.3154V15.5654H20.375V17.3154H19.375ZM21.875 17.3154H20.875V15.5654H21.875V17.3154ZM21.875 15.0654H20.875V13.3154H21.875V15.0654ZM8.5625 26.6279H12.4375V33.4404H8.5625V26.6279ZM12 25.6279H13V26.6279H12V25.6279Z" fill="#89664C"/>
<path d="M7.5625 26.6279H8.5625V33.4404H7.5625V26.6279Z" fill="#594640"/>
<path d="M7.125 25.6279H12V26.6279H7.125V25.6279Z" fill="#DBB471"/>
<path d="M11.625 29.9404C11.8321 29.9404 12 29.7725 12 29.5654C12 29.3583 11.8321 29.1904 11.625 29.1904C11.4179 29.1904 11.25 29.3583 11.25 29.5654C11.25 29.7725 11.4179 29.9404 11.625 29.9404Z" fill="#F9F3D9"/>
<path d="M0.0625 33.4404H32.5625V35.9404H0.0625V33.4404Z" fill="#4237AF"/>
<path d="M24.9375 22.2529H30.75V33.4404H24.9375V22.2529Z" fill="#C7B000"/>
<path d="M16.875 22.2529H24.9375V33.4404H16.875V22.2529Z" fill="#FFEA64"/>
<path d="M16.875 19.6904H3.125L0 22.2529H26.5625L16.875 19.6904Z" fill="#4237AF"/>
<path d="M17.6875 25.8154H21.6875V29.8154H17.6875V25.8154Z" fill="#D6EEF0"/>
<path d="M17.1875 25.3154V30.3154H22.1875V25.3154H17.1875ZM21.6875 25.8154V27.5654H19.9375V25.8154H21.6875ZM19.4375 25.8154V27.5654H17.6875V25.8154H19.4375ZM17.6875 29.8154V28.0654H19.4375V29.8154H17.6875ZM19.9375 29.8154V28.0654H21.6875V29.8154H19.9375Z" fill="#89664C"/>
<path d="M26.3125 25.5654H29.3125V30.0654H26.3125V25.5654Z" fill="#D6EEF0"/>
<path d="M26.0625 25.3154V30.3154H29.5625V25.3154H26.0625ZM26.5625 25.8154H27.5625V27.5654H26.5625V25.8154ZM26.5625 29.8154V28.0654H27.5625V29.8154H26.5625ZM29.0625 29.8154H28.0625V28.0654H29.0625V29.8154ZM29.0625 27.5654H28.0625V25.8154H29.0625V27.5654Z" fill="#89664C"/>
</g>
<defs>
<clipPath id="clip0_817_4503">
<rect width="34" height="35" fill="white" transform="translate(0 0.94043)"/>
</clipPath>
</defs>
</svg>
