<svg width="42" height="42" viewBox="0 0 42 42" fill="none" xmlns="http://www.w3.org/2000/svg">
<rect width="42" height="42" rx="5" fill="#8676FA"/>
<path fill-rule="evenodd" clip-rule="evenodd" d="M10 11.838C10 11.3505 10.1936 10.883 10.5383 10.5383C10.883 10.1936 11.3505 10 11.838 10H30.16C30.4016 9.99961 30.6409 10.0469 30.8641 10.1391C31.0874 10.2313 31.2903 10.3666 31.4612 10.5373C31.6322 10.7081 31.7677 10.9108 31.8602 11.134C31.9526 11.3572 32.0001 11.5964 32 11.838V30.16C32.0003 30.4016 31.9529 30.6409 31.8606 30.8642C31.7683 31.0875 31.6328 31.2904 31.462 31.4613C31.2912 31.6322 31.0884 31.7678 30.8651 31.8602C30.6419 31.9526 30.4026 32.0001 30.161 32H11.838C11.5965 32 11.3575 31.9524 11.1344 31.86C10.9113 31.7676 10.7087 31.6321 10.538 31.4613C10.3673 31.2905 10.2319 31.0878 10.1396 30.8647C10.0473 30.6416 9.99987 30.4025 10 30.161V11.838ZM18.708 18.388H21.687V19.884C22.117 19.024 23.217 18.25 24.87 18.25C28.039 18.25 28.79 19.963 28.79 23.106V28.928H25.583V23.822C25.583 22.032 25.153 21.022 24.061 21.022C22.546 21.022 21.916 22.111 21.916 23.822V28.928H18.708V18.388ZM13.208 28.791H16.416V18.25H13.208V28.79V28.791ZM16.875 14.812C16.881 15.0867 16.8322 15.3598 16.7312 15.6153C16.6303 15.8708 16.4794 16.1036 16.2872 16.3C16.0951 16.4964 15.8657 16.6525 15.6125 16.759C15.3592 16.8655 15.0872 16.9204 14.8125 16.9204C14.5378 16.9204 14.2658 16.8655 14.0125 16.759C13.7593 16.6525 13.5299 16.4964 13.3378 16.3C13.1456 16.1036 12.9947 15.8708 12.8938 15.6153C12.7928 15.3598 12.744 15.0867 12.75 14.812C12.7619 14.2729 12.9844 13.7598 13.3699 13.3827C13.7554 13.0056 14.2732 12.7944 14.8125 12.7944C15.3518 12.7944 15.8696 13.0056 16.2551 13.3827C16.6406 13.7598 16.8631 14.2729 16.875 14.812V14.812Z" fill="white"/>
</svg>
