<svg width="42" height="42" viewBox="0 0 42 42" fill="none" xmlns="http://www.w3.org/2000/svg">
<rect width="42" height="42" rx="5" fill="#8676FA"/>
<path fill-rule="evenodd" clip-rule="evenodd" d="M9 21.067C9 27.033 13.333 31.994 19 33V24.333H16V21H19V18.333C19 15.333 20.933 13.667 23.667 13.667C24.533 13.667 25.467 13.8 26.333 13.933V17H24.8C23.333 17 23 17.733 23 18.667V21H26.2L25.667 24.333H23V33C28.667 31.994 33 27.034 33 21.067C33 14.43 27.6 9 21 9C14.4 9 9 14.43 9 21.067Z" fill="white"/>
</svg>
