<svg width="44" height="44" viewBox="0 0 44 44" fill="none" xmlns="http://www.w3.org/2000/svg">
<rect width="43.8851" height="44" rx="5" fill="#8676FA"/>
<path fill-rule="evenodd" clip-rule="evenodd" d="M27.415 24.382C27.117 24.233 25.656 23.515 25.384 23.415C25.112 23.316 24.914 23.267 24.715 23.565C24.517 23.861 23.948 24.531 23.775 24.729C23.601 24.928 23.428 24.952 23.131 24.804C22.834 24.654 21.876 24.341 20.741 23.329C19.858 22.541 19.261 21.568 19.088 21.27C18.915 20.973 19.069 20.812 19.218 20.664C19.352 20.531 19.515 20.317 19.664 20.144C19.813 19.97 19.862 19.846 19.961 19.647C20.061 19.449 20.011 19.276 19.936 19.127C19.862 18.978 19.268 17.515 19.02 16.92C18.779 16.341 18.534 16.42 18.352 16.41C18.178 16.402 17.98 16.4 17.782 16.4C17.584 16.4 17.262 16.474 16.99 16.772C16.717 17.069 15.95 17.788 15.95 19.251C15.95 20.713 17.014 22.126 17.163 22.325C17.312 22.523 19.258 25.525 22.239 26.812C22.949 27.118 23.502 27.301 23.933 27.437C24.645 27.664 25.293 27.632 25.805 27.555C26.375 27.47 27.563 26.836 27.811 26.142C28.058 25.448 28.058 24.853 27.984 24.729C27.91 24.605 27.712 24.531 27.414 24.382H27.415ZM21.993 31.785H21.989C20.2184 31.7854 18.4804 31.3094 16.957 30.407L16.597 30.193L12.855 31.175L13.854 27.527L13.619 27.153C12.6291 25.5774 12.1053 23.7538 12.108 21.893C12.11 16.443 16.544 12.009 21.997 12.009C24.637 12.009 27.119 13.039 28.985 14.907C29.9054 15.8236 30.6349 16.9136 31.1313 18.1139C31.6277 19.3143 31.8811 20.6011 31.877 21.9C31.875 27.35 27.441 31.785 21.993 31.785V31.785ZM30.405 13.488C29.3032 12.379 27.9922 11.4996 26.5481 10.9008C25.1039 10.3021 23.5553 9.99592 21.992 10C15.438 10 10.102 15.335 10.1 21.892C10.097 23.9788 10.6444 26.0294 11.687 27.837L10 34L16.304 32.346C18.0479 33.2962 20.0021 33.794 21.988 33.794H21.993C28.547 33.794 33.883 28.459 33.885 21.901C33.8898 20.3383 33.5848 18.7901 32.9874 17.3461C32.3901 15.902 31.5124 14.5907 30.405 13.488" fill="white"/>
</svg>
