<svg width="24" height="25" viewBox="0 0 24 25" fill="none" xmlns="http://www.w3.org/2000/svg">
<path d="M9 11.9404C9.79113 11.9404 10.5645 11.7058 11.2223 11.2663C11.8801 10.8268 12.3928 10.2021 12.6955 9.47117C12.9983 8.74026 13.0775 7.93599 12.9231 7.16007C12.7688 6.38415 12.3878 5.67141 11.8284 5.112C11.269 4.55259 10.5563 4.17163 9.78036 4.01729C9.00444 3.86295 8.20017 3.94216 7.46927 4.24491C6.73836 4.54766 6.11365 5.06035 5.67412 5.71815C5.2346 6.37595 5 7.14931 5 7.94043C5 9.0013 5.42143 10.0187 6.17157 10.7689C6.92172 11.519 7.93913 11.9404 9 11.9404ZM9 5.94043C9.39556 5.94043 9.78224 6.05773 10.1111 6.27749C10.44 6.49726 10.6964 6.80961 10.8478 7.17506C10.9991 7.54052 11.0387 7.94265 10.9616 8.33061C10.8844 8.71857 10.6939 9.07494 10.4142 9.35464C10.1345 9.63435 9.77814 9.82483 9.39018 9.902C9.00222 9.97917 8.60009 9.93957 8.23463 9.78819C7.86918 9.63682 7.55682 9.38047 7.33706 9.05157C7.1173 8.72267 7 8.33599 7 7.94043C7 7.41 7.21071 6.90129 7.58579 6.52622C7.96086 6.15114 8.46957 5.94043 9 5.94043Z" fill="white"/>
<path d="M17 13.9404C17.5933 13.9404 18.1734 13.7645 18.6667 13.4348C19.1601 13.1052 19.5446 12.6367 19.7716 12.0885C19.9987 11.5403 20.0581 10.9371 19.9424 10.3552C19.8266 9.77322 19.5409 9.23867 19.1213 8.81911C18.7018 8.39955 18.1672 8.11383 17.5853 7.99808C17.0033 7.88232 16.4001 7.94173 15.8519 8.16879C15.3038 8.39586 14.8352 8.78037 14.5056 9.27372C14.1759 9.76707 14 10.3471 14 10.9404C14 11.7361 14.3161 12.4991 14.8787 13.0618C15.4413 13.6244 16.2044 13.9404 17 13.9404ZM17 9.94043C17.1978 9.94043 17.3911 9.99908 17.5556 10.109C17.72 10.2188 17.8482 10.375 17.9239 10.5577C17.9996 10.7405 18.0194 10.9415 17.9808 11.1355C17.9422 11.3295 17.847 11.5077 17.7071 11.6475C17.5673 11.7874 17.3891 11.8826 17.1951 11.9212C17.0011 11.9598 16.8 11.94 16.6173 11.8643C16.4346 11.7886 16.2784 11.6605 16.1685 11.496C16.0586 11.3316 16 11.1382 16 10.9404C16 10.6752 16.1054 10.4209 16.2929 10.2333C16.4804 10.0458 16.7348 9.94043 17 9.94043Z" fill="white"/>
<path d="M17 14.9405C15.8918 14.9417 14.8155 15.3111 13.94 15.9905C12.9605 15.0148 11.7141 14.3511 10.3578 14.0829C9.00159 13.8147 7.59632 13.9542 6.31923 14.4836C5.04213 15.0131 3.95041 15.9088 3.18174 17.0579C2.41307 18.207 2.00187 19.558 2 20.9405C2 21.2057 2.10536 21.4601 2.29289 21.6476C2.48043 21.8351 2.73478 21.9405 3 21.9405C3.26522 21.9405 3.51957 21.8351 3.70711 21.6476C3.89464 21.4601 4 21.2057 4 20.9405C4 19.6144 4.52678 18.3426 5.46447 17.405C6.40215 16.4673 7.67392 15.9405 9 15.9405C10.3261 15.9405 11.5979 16.4673 12.5355 17.405C13.4732 18.3426 14 19.6144 14 20.9405C14 21.2057 14.1054 21.4601 14.2929 21.6476C14.4804 21.8351 14.7348 21.9405 15 21.9405C15.2652 21.9405 15.5196 21.8351 15.7071 21.6476C15.8946 21.4601 16 21.2057 16 20.9405C16.0024 19.7689 15.7064 18.616 15.14 17.5905C15.5819 17.2413 16.1132 17.0235 16.6731 16.9622C17.233 16.9008 17.7989 16.9983 18.306 17.2435C18.813 17.4887 19.2408 17.8716 19.5404 18.3486C19.84 18.8256 19.9993 19.3772 20 19.9405C20 20.2057 20.1054 20.4601 20.2929 20.6476C20.4804 20.8351 20.7348 20.9405 21 20.9405C21.2652 20.9405 21.5196 20.8351 21.7071 20.6476C21.8946 20.4601 22 20.2057 22 19.9405C22 18.6144 21.4732 17.3426 20.5355 16.405C19.5979 15.4673 18.3261 14.9405 17 14.9405Z" fill="white"/>
</svg>
