<svg width="24" height="25" viewBox="0 0 24 25" fill="none" xmlns="http://www.w3.org/2000/svg">
<path d="M12 11.7738C12.7911 11.7738 13.5645 11.5392 14.2223 11.0997C14.8801 10.6602 15.3928 10.0354 15.6955 9.30454C15.9983 8.57364 16.0775 7.76937 15.9231 6.99344C15.7688 6.21752 15.3878 5.50479 14.8284 4.94538C14.269 4.38597 13.5563 4.00501 12.7804 3.85066C12.0044 3.69632 11.2002 3.77554 10.4693 4.07829C9.73836 4.38104 9.11365 4.89373 8.67412 5.55152C8.2346 6.20932 8 6.98268 8 7.77381C8 8.83467 8.42143 9.85209 9.17157 10.6022C9.92172 11.3524 10.9391 11.7738 12 11.7738ZM12 5.77381C12.3956 5.77381 12.7822 5.8911 13.1111 6.11087C13.44 6.33063 13.6964 6.64299 13.8478 7.00844C13.9991 7.37389 14.0387 7.77602 13.9616 8.16399C13.8844 8.55195 13.6939 8.90831 13.4142 9.18802C13.1345 9.46772 12.7781 9.65821 12.3902 9.73538C12.0022 9.81255 11.6001 9.77294 11.2346 9.62156C10.8692 9.47019 10.5568 9.21384 10.3371 8.88495C10.1173 8.55605 10 8.16937 10 7.77381C10 7.24337 10.2107 6.73466 10.5858 6.35959C10.9609 5.98452 11.4696 5.77381 12 5.77381Z" fill="white"/>
<path d="M12 13.7738C10.1435 13.7738 8.36301 14.5113 7.05025 15.8241C5.7375 17.1368 5 18.9173 5 20.7738C5 21.039 5.10536 21.2934 5.29289 21.4809C5.48043 21.6684 5.73478 21.7738 6 21.7738C6.26522 21.7738 6.51957 21.6684 6.70711 21.4809C6.89464 21.2934 7 21.039 7 20.7738C7 19.4477 7.52678 18.176 8.46447 17.2383C9.40215 16.3006 10.6739 15.7738 12 15.7738C13.3261 15.7738 14.5979 16.3006 15.5355 17.2383C16.4732 18.176 17 19.4477 17 20.7738C17 21.039 17.1054 21.2934 17.2929 21.4809C17.4804 21.6684 17.7348 21.7738 18 21.7738C18.2652 21.7738 18.5196 21.6684 18.7071 21.4809C18.8946 21.2934 19 21.039 19 20.7738C19 18.9173 18.2625 17.1368 16.9497 15.8241C15.637 14.5113 13.8565 13.7738 12 13.7738V13.7738Z" fill="white"/>
</svg>
