<svg width="20" height="21" viewBox="0 0 20 21" fill="none" xmlns="http://www.w3.org/2000/svg">
<path fill-rule="evenodd" clip-rule="evenodd" d="M14.4941 12.3975C14.2579 12.2794 13.0999 11.7103 12.8843 11.631C12.6687 11.5525 12.5117 11.5137 12.354 11.7499C12.1971 11.9845 11.7461 12.5156 11.6089 12.6725C11.471 12.8303 11.3339 12.8493 11.0985 12.732C10.8631 12.6131 10.1037 12.365 9.20408 11.5628C8.50418 10.9382 8.03098 10.167 7.89386 9.9308C7.75673 9.69539 7.8788 9.56778 7.9969 9.45047C8.10311 9.34505 8.23231 9.17542 8.35041 9.0383C8.46852 8.90038 8.50736 8.80209 8.58583 8.64436C8.66509 8.48742 8.62546 8.35029 8.56601 8.23219C8.50736 8.11409 8.03653 6.95447 7.83996 6.48285C7.64893 6.02392 7.45474 6.08654 7.31048 6.07861C7.17256 6.07227 7.01562 6.07068 6.85868 6.07068C6.70174 6.07068 6.44651 6.12934 6.23091 6.36554C6.01453 6.60095 5.40658 7.17086 5.40658 8.33048C5.40658 9.48931 6.24994 10.6093 6.36804 10.767C6.48614 10.924 8.02861 13.3035 10.3914 14.3236C10.9542 14.5661 11.3925 14.7112 11.7342 14.819C12.2985 14.9989 12.8121 14.9735 13.218 14.9125C13.6698 14.8451 14.6114 14.3426 14.808 13.7925C15.0038 13.2424 15.0038 12.7708 14.9451 12.6725C14.8865 12.5742 14.7295 12.5156 14.4933 12.3975H14.4941ZM10.1965 18.2653H10.1933C8.78987 18.2656 7.41223 17.8883 6.20476 17.1731L5.91941 17.0035L2.95338 17.7818L3.74522 14.8903L3.55895 14.5939C2.77435 13.3449 2.35914 11.8995 2.36128 10.4246C2.36287 6.10477 5.8774 2.59023 10.1996 2.59023C12.2922 2.59023 14.2595 3.40665 15.7385 4.88728C16.4681 5.61379 17.0463 6.47775 17.4397 7.42917C17.8332 8.3806 18.0341 9.40059 18.0308 10.4302C18.0292 14.75 14.5147 18.2653 10.1965 18.2653V18.2653ZM16.8641 3.76254C15.9907 2.88345 14.9516 2.18642 13.807 1.71184C12.6623 1.23726 11.4348 0.994572 10.1957 0.997835C5.00075 0.997835 0.771263 5.22653 0.769678 10.4238C0.76727 12.0778 1.20117 13.7032 2.02759 15.136L0.690414 20.021L5.68717 18.71C7.06942 19.4631 8.6184 19.8577 10.1925 19.8577H10.1965C15.3914 19.8577 19.6209 15.629 19.6224 10.431C19.6263 9.19229 19.3845 7.96515 18.911 6.82054C18.4375 5.67593 17.7418 4.63655 16.8641 3.76254" fill="white"/>
</svg>
