<svg xmlns="http://www.w3.org/2000/svg" viewBox="0 0 180 180"><g id="Layer_2" data-name="Layer 2"><path id="Icon_simple-whatsapp" data-name="Icon simple-whatsapp" d="M126.24,105.33c-2-1-11.57-5.67-13.36-6.32s-3.09-1-4.4,1-5,6.31-6.18,7.6-2.29,1.38-4.23.49a53.06,53.06,0,0,1-15.71-9.71A59.57,59.57,0,0,1,71.49,84.84c-1.14-2-.12-3.06.85-4s2-2.25,3-3.42a17.29,17.29,0,0,0,2-3.25,3.63,3.63,0,0,0-.17-3.43c-.49-1-4.4-10.6-6-14.44s-3.19-3.34-4.39-3.34-2.43-.1-3.74-.1a7.41,7.41,0,0,0-5.24,2.35,21.89,21.89,0,0,0-6.84,16.19,38.27,38.27,0,0,0,8,20.11c1,1.28,13.78,20.91,33.38,29.36,4.68,2,8.32,3.14,11.16,4.12a27,27,0,0,0,12.3.79c3.76-.59,11.57-4.72,13.2-9.33a16.33,16.33,0,0,0,1.18-9.33c-.49-.87-1.77-1.38-3.73-2.26M90.65,153.56h-.11a65.48,65.48,0,0,1-33.09-9l-2.35-1.4-24.55,6.4,6.58-23.86-1.56-2.45a64.92,64.92,0,0,1,101.1-80.1,64.06,64.06,0,0,1,19,45.76,65,65,0,0,1-65,64.69M146,33.77A79.48,79.48,0,0,0,90.54,11.19,77.84,77.84,0,0,0,22.8,128L11.7,168.28l41.46-10.81A79,79,0,0,0,90.53,167h0A78.17,78.17,0,0,0,168.8,89.08,77.23,77.23,0,0,0,145.92,34" style="fill:#524acd"/></g></svg>