<svg id="Layer_1" data-name="Layer 1" xmlns="http://www.w3.org/2000/svg" viewBox="0 0 360 178.28"><polyline points="145.56 94.96 127.89 77.3 180.89 24.3 233.89 77.3 216.22 94.96 198.56 77.3 180.89 94.96 163.22 77.3 145.56 94.96" style="fill:#5747d7;fill-rule:evenodd"/><path d="M57.2,140.54c0-3.72-4.09-5.3-13.39-5.3-14.7,0-21-3.91-21-13.3s7.45-14.61,21.4-14.61c12.84,0,21.4,6,21.4,14.89H56.27c0-3.91-4.83-6.51-12.09-6.51-7.91,0-12.09,2.14-12.09,6.23,0,3.53,3.72,4.93,12.56,4.93,15.34,0,21.86,4.19,21.86,13.67,0,9.87-7.82,15.17-22.33,15.17-13.4,0-22.33-6-22.33-14.89h9.31c0,3.91,5.21,6.52,13,6.52C52.65,147.34,57.2,144.92,57.2,140.54Z" style="fill:#5747d7"/><path d="M116.92,132.45V108.26h9.31v24.19c0,13.4-9.49,23.26-22.33,23.26s-22.33-9.86-22.33-23.26V108.26h9.31v24.19c0,8.37,5.49,14.42,13,14.42S116.92,140.82,116.92,132.45Z" style="fill:#5747d7"/><path d="M145,108.26h33.49c8.37,0,14,5.59,14,14,0,7.44-4.84,12.65-12.19,13.39a15.9,15.9,0,0,1,1.68,2.24l10.51,16.93H182l-11.82-19.07H154.32v19.07H145Zm33.49,19.07a4.39,4.39,0,0,0,4.65-4.65v-1.39a4.39,4.39,0,0,0-4.65-4.65H154.32v10.69Z" style="fill:#5747d7"/><path d="M216.74,116.64v10.69h27v8.38h-27v10.7H253v8.37H207.44V108.26H253v8.38Z" style="fill:#5747d7"/><path d="M267.06,108.26h46.52v8.38H295v38.14h-9.3V116.64H267.06Z" style="fill:#5747d7"/><path d="M326.69,154.78V108.26H336v46.52Z" style="fill:#5747d7"/></svg>